%TF.GenerationSoftware,KiCad,Pcbnew,10.0.3+dfsg-1*%
%TF.CreationDate,2026-06-29T10:12:30-04:00*%
%TF.ProjectId,teensy-41-dual-canfd-lin-r9-jlc-silkfix,7465656e-7379-42d3-9431-2d6475616c2d,rev?*%
%TF.SameCoordinates,Original*%
%TF.FileFunction,Copper,L1,Top*%
%TF.FilePolarity,Positive*%
%FSLAX46Y46*%
G04 Gerber Fmt 4.6, Leading zero omitted, Abs format (unit mm)*
G04 Created by KiCad (PCBNEW 10.0.3+dfsg-1) date 2026-06-29 10:12:30*
%MOMM*%
%LPD*%
G01*
G04 APERTURE LIST*
G04 Aperture macros list*
%AMRoundRect*
0 Rectangle with rounded corners*
0 $1 Rounding radius*
0 $2 $3 $4 $5 $6 $7 $8 $9 X,Y pos of 4 corners*
0 Add a 4 corners polygon primitive as box body*
4,1,4,$2,$3,$4,$5,$6,$7,$8,$9,$2,$3,0*
0 Add four circle primitives for the rounded corners*
1,1,$1+$1,$2,$3*
1,1,$1+$1,$4,$5*
1,1,$1+$1,$6,$7*
1,1,$1+$1,$8,$9*
0 Add four rect primitives between the rounded corners*
20,1,$1+$1,$2,$3,$4,$5,0*
20,1,$1+$1,$4,$5,$6,$7,0*
20,1,$1+$1,$6,$7,$8,$9,0*
20,1,$1+$1,$8,$9,$2,$3,0*%
G04 Aperture macros list end*
%TA.AperFunction,SMDPad,CuDef*%
%ADD10RoundRect,0.250000X-0.337500X-0.475000X0.337500X-0.475000X0.337500X0.475000X-0.337500X0.475000X0*%
%TD*%
%TA.AperFunction,SMDPad,CuDef*%
%ADD11C,1.500000*%
%TD*%
%TA.AperFunction,ComponentPad*%
%ADD12C,2.600000*%
%TD*%
%TA.AperFunction,ComponentPad*%
%ADD13C,1.800000*%
%TD*%
%TA.AperFunction,ComponentPad*%
%ADD14RoundRect,0.250000X-0.550000X-0.550000X0.550000X-0.550000X0.550000X0.550000X-0.550000X0.550000X0*%
%TD*%
%TA.AperFunction,ComponentPad*%
%ADD15C,1.600000*%
%TD*%
%TA.AperFunction,ComponentPad*%
%ADD16C,2.700000*%
%TD*%
%TA.AperFunction,SMDPad,CuDef*%
%ADD17RoundRect,0.250000X-0.375000X-0.625000X0.375000X-0.625000X0.375000X0.625000X-0.375000X0.625000X0*%
%TD*%
%TA.AperFunction,SMDPad,CuDef*%
%ADD18RoundRect,0.250000X-1.000000X-0.650000X1.000000X-0.650000X1.000000X0.650000X-1.000000X0.650000X0*%
%TD*%
%TA.AperFunction,SMDPad,CuDef*%
%ADD19RoundRect,0.150000X-0.825000X-0.150000X0.825000X-0.150000X0.825000X0.150000X-0.825000X0.150000X0*%
%TD*%
%TA.AperFunction,SMDPad,CuDef*%
%ADD20RoundRect,0.250000X-0.350000X-0.450000X0.350000X-0.450000X0.350000X0.450000X-0.350000X0.450000X0*%
%TD*%
%TA.AperFunction,SMDPad,CuDef*%
%ADD21RoundRect,0.250000X-2.050000X-0.300000X2.050000X-0.300000X2.050000X0.300000X-2.050000X0.300000X0*%
%TD*%
%TA.AperFunction,SMDPad,CuDef*%
%ADD22RoundRect,0.250002X-4.449998X-5.149998X4.449998X-5.149998X4.449998X5.149998X-4.449998X5.149998X0*%
%TD*%
%TA.AperFunction,ComponentPad*%
%ADD23R,1.700000X1.700000*%
%TD*%
%TA.AperFunction,ComponentPad*%
%ADD24C,1.700000*%
%TD*%
%TA.AperFunction,ViaPad*%
%ADD25C,0.600000*%
%TD*%
%TA.AperFunction,Conductor*%
%ADD26C,0.200000*%
%TD*%
G04 APERTURE END LIST*
D10*
%TO.P,C5,1*%
%TO.N,+5V_REGULATED*%
X84962500Y-18000000D03*
%TO.P,C5,2*%
%TO.N,GND*%
X87037500Y-18000000D03*
%TD*%
D11*
%TO.P,TP2,1*%
%TO.N,+5V_REGULATED*%
X44000000Y-60000000D03*
%TD*%
D12*
%TO.P,L1,1*%
%TO.N,BUCK_SW*%
X58000000Y-88000000D03*
%TO.P,L1,2*%
%TO.N,+5V_REGULATED*%
X63000000Y-88000000D03*
%TD*%
D13*
%TO.P,U1,0*%
%TO.N,CAN_B_RX*%
X120540000Y-30240000D03*
%TO.P,U1,1*%
%TO.N,CAN_B_TX*%
X123080000Y-30240000D03*
%TO.P,U1,2*%
%TO.N,N/C*%
X125620000Y-30240000D03*
%TO.P,U1,3*%
X128160000Y-30240000D03*
%TO.P,U1,3V3_B*%
%TO.N,+3V3*%
X153560000Y-30240000D03*
%TO.P,U1,4*%
%TO.N,CAN_B_STB*%
X130699999Y-30240000D03*
%TO.P,U1,5*%
%TO.N,CAN_A_STB*%
X133240000Y-30240000D03*
%TO.P,U1,6*%
%TO.N,LIN_EN*%
X135780000Y-30240000D03*
%TO.P,U1,7*%
%TO.N,LIN_RX*%
X138320000Y-30240000D03*
%TO.P,U1,8*%
%TO.N,LIN_TX*%
X140860000Y-30240000D03*
%TO.P,U1,9*%
%TO.N,N/C*%
X143400000Y-30240000D03*
%TO.P,U1,10*%
X145940000Y-30240000D03*
%TO.P,U1,11*%
X148480000Y-30240000D03*
%TO.P,U1,12*%
X151020000Y-30240000D03*
%TO.P,U1,13*%
X148480000Y-15000000D03*
%TO.P,U1,14*%
X145940000Y-15000000D03*
%TO.P,U1,15*%
X143400000Y-15000000D03*
%TO.P,U1,16*%
X140860000Y-15000000D03*
%TO.P,U1,17*%
X138320000Y-15000000D03*
%TO.P,U1,18*%
X135780000Y-15000000D03*
%TO.P,U1,19*%
X133240000Y-15000000D03*
%TO.P,U1,20*%
X130699999Y-15000000D03*
%TO.P,U1,21*%
X128160000Y-15000000D03*
%TO.P,U1,22*%
%TO.N,CAN_A_TX*%
X125620000Y-15000000D03*
%TO.P,U1,23*%
%TO.N,CAN_A_RX*%
X123080000Y-15000000D03*
%TO.P,U1,24*%
%TO.N,N/C*%
X156100000Y-30240000D03*
%TO.P,U1,25*%
X158640000Y-30240000D03*
%TO.P,U1,26*%
X161180000Y-30240000D03*
%TO.P,U1,27*%
X163720000Y-30240000D03*
%TO.P,U1,28*%
X166260000Y-30240000D03*
%TO.P,U1,29*%
X168800000Y-30240000D03*
%TO.P,U1,30*%
X171340000Y-30240000D03*
%TO.P,U1,31*%
X173880000Y-30240000D03*
%TO.P,U1,32*%
X176420000Y-30240000D03*
%TO.P,U1,33*%
X173880000Y-15000000D03*
%TO.P,U1,34*%
X171340000Y-15000000D03*
%TO.P,U1,35*%
X168800000Y-15000000D03*
%TO.P,U1,36*%
X166260000Y-15000000D03*
%TO.P,U1,37*%
X163720000Y-15000000D03*
%TO.P,U1,38*%
X161180000Y-15000000D03*
%TO.P,U1,39*%
X158640000Y-15000000D03*
%TO.P,U1,40*%
X156100000Y-15000000D03*
%TO.P,U1,41*%
X153560000Y-15000000D03*
%TO.P,U1,GND_B1*%
%TO.N,GND*%
X118000000Y-30240000D03*
%TO.P,U1,GND_T1*%
X118000000Y-15000000D03*
%TO.P,U1,GND_T2*%
X151020000Y-15000000D03*
%TO.P,U1,VIN*%
%TO.N,+5V_REGULATED*%
X120540000Y-15000000D03*
%TD*%
D14*
%TO.P,C1,1*%
%TO.N,+12V_PROTECTED*%
X18000000Y-96000000D03*
D15*
%TO.P,C1,2*%
%TO.N,GND*%
X21500000Y-96000000D03*
%TD*%
D11*
%TO.P,TP5,1*%
%TO.N,CAN_A_L*%
X111000000Y-24000000D03*
%TD*%
D16*
%TO.P,J1,1*%
%TO.N,OBD1_SINGLE_WIRE_CANDIDATE*%
X12000000Y-16000000D03*
%TO.P,J1,2*%
%TO.N,OBD2_SPARE_PWM_J1850_CANDIDATE*%
X12000000Y-21000000D03*
%TO.P,J1,3*%
%TO.N,OBD3_CAN_B_PAIR_A_CANDIDATE*%
X12000000Y-26000000D03*
%TO.P,J1,4*%
%TO.N,GND*%
X12000000Y-31000000D03*
%TO.P,J1,5*%
X12000000Y-36000000D03*
%TO.P,J1,6*%
%TO.N,OBD6_CAN_A_PAIR_A*%
X12000000Y-41000000D03*
%TO.P,J1,7*%
%TO.N,OBD7_SINGLE_WIRE_CANDIDATE*%
X12000000Y-46000000D03*
%TO.P,J1,8*%
%TO.N,OBD8_SINGLE_WIRE_CANDIDATE*%
X12000000Y-51000000D03*
%TO.P,J1,9*%
%TO.N,OBD9_SINGLE_WIRE_CANDIDATE*%
X19500000Y-16000000D03*
%TO.P,J1,10*%
%TO.N,OBD10_SPARE_PWM_J1850_CANDIDATE*%
X19500000Y-21000000D03*
%TO.P,J1,11*%
%TO.N,OBD11_CAN_B_PAIR_B_CANDIDATE*%
X19500000Y-26000000D03*
%TO.P,J1,12*%
%TO.N,OBD12_SINGLE_WIRE_CANDIDATE*%
X19500000Y-31000000D03*
%TO.P,J1,13*%
%TO.N,OBD13_SINGLE_WIRE_CANDIDATE*%
X19500000Y-36000000D03*
%TO.P,J1,14*%
%TO.N,OBD14_CAN_A_PAIR_B*%
X19500000Y-41000000D03*
%TO.P,J1,15*%
%TO.N,OBD15_SINGLE_WIRE_CANDIDATE*%
X19500000Y-46000000D03*
%TO.P,J1,16*%
%TO.N,+12V_OBD*%
X19500000Y-51000000D03*
%TD*%
D11*
%TO.P,TP6,1*%
%TO.N,CAN_B_H*%
X111000000Y-39000000D03*
%TD*%
D17*
%TO.P,F1,1*%
%TO.N,+12V_OBD*%
X28600000Y-72000000D03*
%TO.P,F1,2*%
%TO.N,+12V_PROTECTED*%
X31400000Y-72000000D03*
%TD*%
D18*
%TO.P,D1,1*%
%TO.N,+12V_PROTECTED*%
X22000000Y-80000000D03*
%TO.P,D1,2*%
%TO.N,GND*%
X26000000Y-80000000D03*
%TD*%
%TO.P,D2,1*%
%TO.N,BUCK_SW*%
X54000000Y-98000000D03*
%TO.P,D2,2*%
%TO.N,GND*%
X58000000Y-98000000D03*
%TD*%
D14*
%TO.P,C3,1*%
%TO.N,+5V_REGULATED*%
X72000000Y-96000000D03*
D15*
%TO.P,C3,2*%
%TO.N,GND*%
X75500000Y-96000000D03*
%TD*%
D10*
%TO.P,C4,1*%
%TO.N,+5V_REGULATED*%
X70962500Y-84000000D03*
%TO.P,C4,2*%
%TO.N,GND*%
X73037500Y-84000000D03*
%TD*%
D19*
%TO.P,U3,1*%
%TO.N,CAN_B_TX*%
X91525000Y-37095000D03*
%TO.P,U3,2*%
%TO.N,GND*%
X91525000Y-38365000D03*
%TO.P,U3,3*%
%TO.N,+5V_REGULATED*%
X91525000Y-39635000D03*
%TO.P,U3,4*%
%TO.N,CAN_B_RX*%
X91525000Y-40905000D03*
%TO.P,U3,5*%
%TO.N,+3V3*%
X96475000Y-40905000D03*
%TO.P,U3,6*%
%TO.N,CAN_B_L*%
X96475000Y-39635000D03*
%TO.P,U3,7*%
%TO.N,CAN_B_H*%
X96475000Y-38365000D03*
%TO.P,U3,8*%
%TO.N,CAN_B_STB*%
X96475000Y-37095000D03*
%TD*%
D11*
%TO.P,TP7,1*%
%TO.N,CAN_B_L*%
X111000000Y-45000000D03*
%TD*%
%TO.P,TP8,1*%
%TO.N,LIN_BUS*%
X111000000Y-64000000D03*
%TD*%
D10*
%TO.P,C6,1*%
%TO.N,+5V_REGULATED*%
X84962500Y-39000000D03*
%TO.P,C6,2*%
%TO.N,GND*%
X87037500Y-39000000D03*
%TD*%
D14*
%TO.P,SW1,1*%
%TO.N,OBD6_CAN_A_PAIR_A*%
X55000000Y-13000000D03*
D15*
%TO.P,SW1,2*%
%TO.N,OBD14_CAN_A_PAIR_B*%
X55000000Y-15540000D03*
%TO.P,SW1,3*%
%TO.N,OBD6_CAN_A_PAIR_A*%
X55000000Y-18080000D03*
%TO.P,SW1,4*%
%TO.N,OBD14_CAN_A_PAIR_B*%
X55000000Y-20620000D03*
%TO.P,SW1,5*%
%TO.N,OBD3_CAN_B_PAIR_A_CANDIDATE*%
X55000000Y-23160000D03*
%TO.P,SW1,6*%
%TO.N,OBD11_CAN_B_PAIR_B_CANDIDATE*%
X55000000Y-25700000D03*
%TO.P,SW1,7*%
%TO.N,OBD3_CAN_B_PAIR_A_CANDIDATE*%
X55000000Y-28240000D03*
%TO.P,SW1,8*%
%TO.N,OBD11_CAN_B_PAIR_B_CANDIDATE*%
X55000000Y-30780000D03*
%TO.P,SW1,9*%
%TO.N,CAN_B_H*%
X62620000Y-30780000D03*
%TO.P,SW1,10*%
%TO.N,CAN_B_L*%
X62620000Y-28240000D03*
%TO.P,SW1,11*%
X62620000Y-25700000D03*
%TO.P,SW1,12*%
%TO.N,CAN_B_H*%
X62620000Y-23160000D03*
%TO.P,SW1,13*%
%TO.N,CAN_A_H*%
X62620000Y-20620000D03*
%TO.P,SW1,14*%
%TO.N,CAN_A_L*%
X62620000Y-18080000D03*
%TO.P,SW1,15*%
X62620000Y-15540000D03*
%TO.P,SW1,16*%
%TO.N,CAN_A_H*%
X62620000Y-13000000D03*
%TD*%
D11*
%TO.P,TP3,1*%
%TO.N,GND*%
X24000000Y-60000000D03*
%TD*%
D19*
%TO.P,U2,1*%
%TO.N,CAN_A_TX*%
X91525000Y-16095000D03*
%TO.P,U2,2*%
%TO.N,GND*%
X91525000Y-17365000D03*
%TO.P,U2,3*%
%TO.N,+5V_REGULATED*%
X91525000Y-18635000D03*
%TO.P,U2,4*%
%TO.N,CAN_A_RX*%
X91525000Y-19905000D03*
%TO.P,U2,5*%
%TO.N,+3V3*%
X96475000Y-19905000D03*
%TO.P,U2,6*%
%TO.N,CAN_A_L*%
X96475000Y-18635000D03*
%TO.P,U2,7*%
%TO.N,CAN_A_H*%
X96475000Y-17365000D03*
%TO.P,U2,8*%
%TO.N,CAN_A_STB*%
X96475000Y-16095000D03*
%TD*%
D11*
%TO.P,TP9,1*%
%TO.N,AUX_LIN_K_IO*%
X158000000Y-88000000D03*
%TD*%
%TO.P,TP4,1*%
%TO.N,CAN_A_H*%
X111000000Y-18000000D03*
%TD*%
D10*
%TO.P,C2,1*%
%TO.N,+12V_PROTECTED*%
X24962500Y-88000000D03*
%TO.P,C2,2*%
%TO.N,GND*%
X27037500Y-88000000D03*
%TD*%
D14*
%TO.P,SW2,1*%
%TO.N,OBD7_SINGLE_WIRE_CANDIDATE*%
X55000000Y-52000000D03*
D15*
%TO.P,SW2,2*%
%TO.N,OBD15_SINGLE_WIRE_CANDIDATE*%
X55000000Y-54540000D03*
%TO.P,SW2,3*%
%TO.N,OBD1_SINGLE_WIRE_CANDIDATE*%
X55000000Y-57080000D03*
%TO.P,SW2,4*%
%TO.N,OBD8_SINGLE_WIRE_CANDIDATE*%
X55000000Y-59620000D03*
%TO.P,SW2,5*%
%TO.N,OBD9_SINGLE_WIRE_CANDIDATE*%
X55000000Y-62160000D03*
%TO.P,SW2,6*%
%TO.N,OBD12_SINGLE_WIRE_CANDIDATE*%
X55000000Y-64700000D03*
%TO.P,SW2,7*%
%TO.N,OBD13_SINGLE_WIRE_CANDIDATE*%
X55000000Y-67240000D03*
%TO.P,SW2,8*%
%TO.N,AUX_LIN_K_IO*%
X55000000Y-69780000D03*
%TO.P,SW2,9*%
%TO.N,LIN_BUS*%
X62620000Y-69780000D03*
%TO.P,SW2,10*%
X62620000Y-67240000D03*
%TO.P,SW2,11*%
X62620000Y-64700000D03*
%TO.P,SW2,12*%
X62620000Y-62160000D03*
%TO.P,SW2,13*%
X62620000Y-59620000D03*
%TO.P,SW2,14*%
X62620000Y-57080000D03*
%TO.P,SW2,15*%
X62620000Y-54540000D03*
%TO.P,SW2,16*%
X62620000Y-52000000D03*
%TD*%
D19*
%TO.P,U4,1*%
%TO.N,LIN_RX*%
X91525000Y-62095000D03*
%TO.P,U4,2*%
%TO.N,LIN_EN*%
X91525000Y-63365000D03*
%TO.P,U4,3*%
%TO.N,N/C*%
X91525000Y-64635000D03*
%TO.P,U4,4*%
%TO.N,LIN_TX*%
X91525000Y-65905000D03*
%TO.P,U4,5*%
%TO.N,GND*%
X96475000Y-65905000D03*
%TO.P,U4,6*%
%TO.N,LIN_BUS*%
X96475000Y-64635000D03*
%TO.P,U4,7*%
%TO.N,+12V_PROTECTED*%
X96475000Y-63365000D03*
%TO.P,U4,8*%
%TO.N,N/C*%
X96475000Y-62095000D03*
%TD*%
D20*
%TO.P,R1,1*%
%TO.N,LIN_RX*%
X85000000Y-58000000D03*
%TO.P,R1,2*%
%TO.N,+3V3*%
X87000000Y-58000000D03*
%TD*%
D10*
%TO.P,C7,1*%
%TO.N,+5V_REGULATED*%
X84962500Y-64000000D03*
%TO.P,C7,2*%
%TO.N,GND*%
X87037500Y-64000000D03*
%TD*%
D21*
%TO.P,U5,1*%
%TO.N,+12V_PROTECTED*%
X34350000Y-84600000D03*
%TO.P,U5,2*%
%TO.N,BUCK_SW*%
X34350000Y-86300000D03*
%TO.P,U5,3*%
%TO.N,GND*%
X34350000Y-88000000D03*
D22*
%TO.N,N/C*%
X43500000Y-88000000D03*
D21*
%TO.P,U5,4*%
%TO.N,+5V_REGULATED*%
X34350000Y-89700000D03*
%TO.P,U5,5*%
%TO.N,GND*%
X34350000Y-91400000D03*
%TD*%
D11*
%TO.P,TP1,1*%
%TO.N,+12V_OBD*%
X34000000Y-60000000D03*
%TD*%
D23*
%TO.P,J2,1*%
%TO.N,CAN_B_H*%
X158000000Y-62000000D03*
D24*
%TO.P,J2,2*%
%TO.N,CAN_B_L*%
X158000000Y-64540000D03*
%TO.P,J2,3*%
%TO.N,AUX_LIN_K_IO*%
X158000000Y-67080000D03*
%TO.P,J2,4*%
%TO.N,GND*%
X158000000Y-69620000D03*
%TO.P,J2,5*%
%TO.N,+5V_REGULATED*%
X158000000Y-72160000D03*
%TO.P,J2,6*%
%TO.N,+12V_PROTECTED*%
X158000000Y-74700000D03*
%TO.P,J2,7*%
%TO.N,CAN_A_H*%
X158000000Y-77240000D03*
%TO.P,J2,8*%
%TO.N,CAN_A_L*%
X158000000Y-79780000D03*
%TD*%
D25*
%TO.N,+5V_REGULATED*%
X68566900Y-63430000D03*
X85082100Y-40230700D03*
X85102500Y-19482200D03*
X156925400Y-70729300D03*
%TO.N,GND*%
X75229600Y-83182700D03*
X87669500Y-65294500D03*
X21914400Y-59804300D03*
X89448100Y-39000000D03*
X24053900Y-80219200D03*
%TO.N,BUCK_SW*%
X54000000Y-96586900D03*
%TO.N,+3V3*%
X95168000Y-45368500D03*
X94987000Y-28407900D03*
X94987000Y-19905000D03*
%TO.N,CAN_A_STB*%
X108711200Y-16592700D03*
%TO.N,LIN_EN*%
X112339500Y-61433100D03*
%TO.N,LIN_RX*%
X116587000Y-56882000D03*
%TO.N,LIN_TX*%
X121583000Y-66561100D03*
%TO.N,CAN_A_L*%
X157228700Y-27659000D03*
%TO.N,OBD6_CAN_A_PAIR_A*%
X39780400Y-28730100D03*
%TO.N,CAN_A_H*%
X112261200Y-18194300D03*
X116587000Y-71101100D03*
%TO.N,AUX_LIN_K_IO*%
X158226400Y-86744700D03*
%TD*%
%TO.N,+5V_REGULATED*%
D26*
X84962500Y-64000000D02*
X84392500Y-63430000D01*
X37622200Y-91499500D02*
X35822700Y-89700000D01*
X91525000Y-18635000D02*
X89328500Y-18635000D01*
X89328500Y-18635000D02*
X88481300Y-19482200D01*
X110570400Y-19057700D02*
X109512700Y-18000000D01*
X66962500Y-88000000D02*
X70962500Y-84000000D01*
X68566900Y-63430000D02*
X47430000Y-63430000D01*
X156925400Y-71085400D02*
X156925400Y-70729300D01*
X91525000Y-39635000D02*
X91123300Y-40036700D01*
X47430000Y-63430000D02*
X44000000Y-60000000D01*
X84962500Y-19342200D02*
X85102500Y-19482200D01*
X84962500Y-18000000D02*
X84962500Y-19342200D01*
X158000000Y-72160000D02*
X156925400Y-71085400D01*
X85082100Y-40230700D02*
X85637700Y-39675100D01*
X120540000Y-15000000D02*
X116482300Y-19057700D01*
X109512700Y-18000000D02*
X95399200Y-18000000D01*
X35822700Y-89700000D02*
X34350000Y-89700000D01*
X63000000Y-88000000D02*
X66962500Y-88000000D01*
X94764200Y-18635000D02*
X91525000Y-18635000D01*
X38767300Y-93705300D02*
X37622200Y-92560200D01*
X88481300Y-19482200D02*
X85102500Y-19482200D01*
X95399200Y-18000000D02*
X94764200Y-18635000D01*
X85999200Y-40036700D02*
X85637700Y-39675100D01*
X37622200Y-92560200D02*
X37622200Y-91499500D01*
X116482300Y-19057700D02*
X110570400Y-19057700D01*
X57294700Y-93705300D02*
X38767300Y-93705300D01*
X84392500Y-63430000D02*
X68566900Y-63430000D01*
X91123300Y-40036700D02*
X85999200Y-40036700D01*
X63000000Y-88000000D02*
X57294700Y-93705300D01*
X85637700Y-39675100D02*
X84962500Y-39000000D01*
%TO.N,GND*%
X123505900Y-13726400D02*
X124281700Y-14502200D01*
X124281700Y-14502200D02*
X124281700Y-15381300D01*
X100254300Y-30240000D02*
X118000000Y-30240000D01*
X87672500Y-38365000D02*
X91525000Y-38365000D01*
X21914400Y-59804300D02*
X23804300Y-59804300D01*
X92129300Y-38365000D02*
X100254300Y-30240000D01*
X30714000Y-89231200D02*
X31182200Y-89699400D01*
X34350000Y-91400000D02*
X32882800Y-91400000D01*
X91525000Y-17365000D02*
X87672500Y-17365000D01*
X87669500Y-64632000D02*
X87037500Y-64000000D01*
X91525000Y-17365000D02*
X92284800Y-17365000D01*
X28268800Y-89231200D02*
X27037500Y-88000000D01*
X58000000Y-98000000D02*
X73500000Y-98000000D01*
X21500000Y-96000000D02*
X28268800Y-89231200D01*
X34350000Y-88000000D02*
X32881600Y-88000000D01*
X25780800Y-80219200D02*
X24053900Y-80219200D01*
X91525000Y-38365000D02*
X92129300Y-38365000D01*
X125116100Y-16215700D02*
X149804300Y-16215700D01*
X87037500Y-39000000D02*
X87672500Y-38365000D01*
X87669500Y-65294500D02*
X87669500Y-64632000D01*
X73500000Y-98000000D02*
X75500000Y-96000000D01*
X32882800Y-91400000D02*
X31182200Y-89699400D01*
X87672500Y-17365000D02*
X87037500Y-18000000D01*
X58000000Y-98000000D02*
X56723600Y-99276400D01*
X119273600Y-13726400D02*
X123505900Y-13726400D01*
X23804300Y-59804300D02*
X24000000Y-60000000D01*
X32881600Y-88000000D02*
X31182200Y-89699400D01*
X28268800Y-89231200D02*
X30714000Y-89231200D01*
X42226400Y-99276400D02*
X34350000Y-91400000D01*
X96475000Y-65905000D02*
X95864500Y-65294500D01*
X94649800Y-15000000D02*
X118000000Y-15000000D01*
X118000000Y-15000000D02*
X119273600Y-13726400D01*
X87037500Y-39000000D02*
X89448100Y-39000000D01*
X75229600Y-83182700D02*
X73854800Y-83182700D01*
X56723600Y-99276400D02*
X42226400Y-99276400D01*
X95864500Y-65294500D02*
X87669500Y-65294500D01*
X92284800Y-17365000D02*
X94649800Y-15000000D01*
X124281700Y-15381300D02*
X125116100Y-16215700D01*
X149804300Y-16215700D02*
X151020000Y-15000000D01*
X26000000Y-80000000D02*
X25780800Y-80219200D01*
X73854800Y-83182700D02*
X73037500Y-84000000D01*
%TO.N,BUCK_SW*%
X34350000Y-86300000D02*
X35839800Y-86300000D01*
X37572000Y-83504200D02*
X38824900Y-82251300D01*
X38824900Y-82251300D02*
X52251300Y-82251300D01*
X54000000Y-96586900D02*
X54000000Y-98000000D01*
X37572000Y-84567800D02*
X37572000Y-83504200D01*
X35839800Y-86300000D02*
X37572000Y-84567800D01*
X52251300Y-82251300D02*
X58000000Y-88000000D01*
%TO.N,CAN_B_RX*%
X91954200Y-40905000D02*
X94814500Y-38044700D01*
X99618900Y-32271200D02*
X118508800Y-32271200D01*
X91525000Y-40905000D02*
X91954200Y-40905000D01*
X94814500Y-37075600D02*
X99618900Y-32271200D01*
X118508800Y-32271200D02*
X120540000Y-30240000D01*
X94814500Y-38044700D02*
X94814500Y-37075600D01*
%TO.N,CAN_B_TX*%
X99622500Y-28997500D02*
X121837500Y-28997500D01*
X121837500Y-28997500D02*
X123080000Y-30240000D01*
X91525000Y-37095000D02*
X99622500Y-28997500D01*
%TO.N,+3V3*%
X96475000Y-19905000D02*
X94987000Y-19905000D01*
X95168000Y-45368500D02*
X95168000Y-42212000D01*
X95168000Y-42212000D02*
X96475000Y-40905000D01*
X151727900Y-28407900D02*
X94987000Y-28407900D01*
X95168000Y-49832000D02*
X95168000Y-45368500D01*
X87000000Y-58000000D02*
X95168000Y-49832000D01*
X153560000Y-30240000D02*
X151727900Y-28407900D01*
%TO.N,CAN_B_STB*%
X98065100Y-35504900D02*
X125435200Y-35504900D01*
X96475000Y-37095000D02*
X98065100Y-35504900D01*
X125435200Y-35504900D02*
X125435200Y-35504800D01*
X125435200Y-35504800D02*
X130700000Y-30240000D01*
%TO.N,CAN_A_STB*%
X108711200Y-16592700D02*
X96972700Y-16592700D01*
X96972700Y-16592700D02*
X96475000Y-16095000D01*
%TO.N,LIN_EN*%
X94629000Y-61433100D02*
X112339500Y-61433100D01*
X92697100Y-63365000D02*
X94629000Y-61433100D01*
X91525000Y-63365000D02*
X92697100Y-63365000D01*
%TO.N,LIN_RX*%
X89095000Y-62095000D02*
X91525000Y-62095000D01*
X96738000Y-56882000D02*
X116587000Y-56882000D01*
X85000000Y-58000000D02*
X89095000Y-62095000D01*
X91525000Y-62095000D02*
X96738000Y-56882000D01*
%TO.N,LIN_TX*%
X91525000Y-65905000D02*
X92181100Y-66561100D01*
X92181100Y-66561100D02*
X121583000Y-66561100D01*
%TO.N,CAN_A_TX*%
X125620000Y-15000000D02*
X123928200Y-13308200D01*
X123928200Y-13308200D02*
X94311800Y-13308200D01*
X94311800Y-13308200D02*
X91525000Y-16095000D01*
%TO.N,CAN_A_RX*%
X91525000Y-19905000D02*
X92127300Y-20507300D01*
X92127300Y-20507300D02*
X117572700Y-20507300D01*
X117572700Y-20507300D02*
X123080000Y-15000000D01*
%TO.N,+12V_PROTECTED*%
X24962500Y-84600000D02*
X24962500Y-88000000D01*
X34726400Y-68673600D02*
X31400000Y-72000000D01*
X122191900Y-68673600D02*
X34726400Y-68673600D01*
X24962500Y-84600000D02*
X34350000Y-84600000D01*
X158000000Y-74700000D02*
X151973600Y-68673600D01*
X23400000Y-80000000D02*
X22000000Y-80000000D01*
X24962500Y-82962500D02*
X24962500Y-84600000D01*
X18000000Y-96000000D02*
X18000000Y-94962500D01*
X22000000Y-80000000D02*
X24962500Y-82962500D01*
X122191900Y-68673600D02*
X122191900Y-66289400D01*
X31400000Y-72000000D02*
X23400000Y-80000000D01*
X122191900Y-66289400D02*
X121259000Y-65356500D01*
X105981000Y-65356500D02*
X103989500Y-63365000D01*
X18000000Y-94962500D02*
X24962500Y-88000000D01*
X121259000Y-65356500D02*
X105981000Y-65356500D01*
X151973600Y-68673600D02*
X122191900Y-68673600D01*
X103989500Y-63365000D02*
X96475000Y-63365000D01*
%TO.N,CAN_A_L*%
X90504700Y-19260000D02*
X90207600Y-19557100D01*
X114659000Y-27659000D02*
X111000000Y-24000000D01*
X90207600Y-19557100D02*
X90207600Y-20226900D01*
X62211800Y-21790700D02*
X88643800Y-21790700D01*
X61517000Y-21095900D02*
X62211800Y-21790700D01*
X90207600Y-20226900D02*
X93980700Y-24000000D01*
X62620000Y-18080000D02*
X61517000Y-19183000D01*
X88643800Y-21790700D02*
X90207600Y-20226900D01*
X93980700Y-24000000D02*
X111000000Y-24000000D01*
X95850000Y-19260000D02*
X90504700Y-19260000D01*
X157228700Y-27659000D02*
X114659000Y-27659000D01*
X61517000Y-19183000D02*
X61517000Y-21095900D01*
X96475000Y-18635000D02*
X95850000Y-19260000D01*
%TO.N,OBD3_CAN_B_PAIR_A_CANDIDATE*%
X14128400Y-28128400D02*
X12000000Y-26000000D01*
X54888400Y-28128400D02*
X14128400Y-28128400D01*
X56169800Y-24329800D02*
X55000000Y-23160000D01*
X55000000Y-28240000D02*
X56169800Y-27070200D01*
X56169800Y-27070200D02*
X56169800Y-24329800D01*
X55000000Y-28240000D02*
X54888400Y-28128400D01*
%TO.N,OBD6_CAN_A_PAIR_A*%
X39780400Y-28730100D02*
X24269900Y-28730100D01*
X24269900Y-28730100D02*
X12000000Y-41000000D01*
%TO.N,OBD7_SINGLE_WIRE_CANDIDATE*%
X13665100Y-44334900D02*
X12000000Y-46000000D01*
X55000000Y-52000000D02*
X47334900Y-44334900D01*
X47334900Y-44334900D02*
X13665100Y-44334900D01*
%TO.N,OBD8_SINGLE_WIRE_CANDIDATE*%
X13666900Y-49333100D02*
X44713100Y-49333100D01*
X44713100Y-49333100D02*
X55000000Y-59620000D01*
X12000000Y-51000000D02*
X13666900Y-49333100D01*
%TO.N,OBD11_CAN_B_PAIR_B_CANDIDATE*%
X55000000Y-25700000D02*
X19800000Y-25700000D01*
X19800000Y-25700000D02*
X19500000Y-26000000D01*
%TO.N,OBD14_CAN_A_PAIR_B*%
X30990000Y-29510000D02*
X19500000Y-41000000D01*
X55295000Y-29510000D02*
X30990000Y-29510000D01*
X56642800Y-28162200D02*
X55295000Y-29510000D01*
X55000000Y-20620000D02*
X56642800Y-22262800D01*
X56642800Y-22262800D02*
X56642800Y-28162200D01*
%TO.N,OBD15_SINGLE_WIRE_CANDIDATE*%
X55000000Y-54540000D02*
X46460000Y-46000000D01*
X46460000Y-46000000D02*
X19500000Y-46000000D01*
%TO.N,+12V_OBD*%
X19500000Y-51000000D02*
X25000000Y-51000000D01*
X25000000Y-51000000D02*
X34000000Y-60000000D01*
X28600000Y-72000000D02*
X28600000Y-65400000D01*
X28600000Y-65400000D02*
X34000000Y-60000000D01*
%TO.N,CAN_B_H*%
X95791200Y-38365000D02*
X92641500Y-41514700D01*
X133848300Y-39000000D02*
X111000000Y-39000000D01*
X73354700Y-41514700D02*
X62620000Y-30780000D01*
X156848300Y-62000000D02*
X133848300Y-39000000D01*
X97110000Y-39000000D02*
X96475000Y-38365000D01*
X158000000Y-62000000D02*
X156848300Y-62000000D01*
X111000000Y-39000000D02*
X97110000Y-39000000D01*
X92641500Y-41514700D02*
X73354700Y-41514700D01*
X96475000Y-38365000D02*
X95791200Y-38365000D01*
%TO.N,CAN_B_L*%
X96475000Y-39635000D02*
X96475000Y-40035600D01*
X106035600Y-40035600D02*
X111000000Y-45000000D01*
X61450200Y-31192600D02*
X61450200Y-29409800D01*
X96475000Y-40035600D02*
X95625500Y-40035600D01*
X93700200Y-41960900D02*
X72218500Y-41960900D01*
X61450200Y-29409800D02*
X62620000Y-28240000D01*
X72218500Y-41960900D02*
X61450200Y-31192600D01*
X111000000Y-45000000D02*
X138460000Y-45000000D01*
X96475000Y-40035600D02*
X106035600Y-40035600D01*
X138460000Y-45000000D02*
X158000000Y-64540000D01*
X95625500Y-40035600D02*
X93700200Y-41960900D01*
%TO.N,LIN_BUS*%
X96475000Y-64635000D02*
X96068700Y-64635000D01*
X95171400Y-63036700D02*
X95478100Y-62730000D01*
X95478100Y-62730000D02*
X109730000Y-62730000D01*
X109730000Y-62730000D02*
X111000000Y-64000000D01*
X88752200Y-64000000D02*
X86912200Y-62160000D01*
X94909100Y-64000000D02*
X88752200Y-64000000D01*
X86912200Y-62160000D02*
X62620000Y-62160000D01*
X96068700Y-64635000D02*
X95171400Y-63737700D01*
X95171400Y-63737700D02*
X95171400Y-63036700D01*
X95171400Y-63737700D02*
X94909100Y-64000000D01*
%TO.N,CAN_A_H*%
X108458300Y-15458300D02*
X111000000Y-18000000D01*
X151861100Y-71101100D02*
X116587000Y-71101100D01*
X62620000Y-20620000D02*
X66275200Y-16964800D01*
X86492600Y-19062300D02*
X88133000Y-19062300D01*
X66275200Y-16964800D02*
X85550900Y-16964800D01*
X158000000Y-77240000D02*
X151861100Y-71101100D01*
X112261200Y-18194300D02*
X111194300Y-18194300D01*
X95197600Y-15756900D02*
X95496200Y-15458300D01*
X85900300Y-17314200D02*
X85900300Y-18470000D01*
X95197600Y-16489200D02*
X95197600Y-15756900D01*
X111194300Y-18194300D02*
X111000000Y-18000000D01*
X88133000Y-19062300D02*
X89195300Y-18000000D01*
X95496200Y-15458300D02*
X108458300Y-15458300D01*
X85900300Y-18470000D02*
X86492600Y-19062300D01*
X85550900Y-16964800D02*
X85900300Y-17314200D01*
X96073400Y-17365000D02*
X95197600Y-16489200D01*
X89195300Y-18000000D02*
X93686800Y-18000000D01*
X96475000Y-17365000D02*
X96073400Y-17365000D01*
X93686800Y-18000000D02*
X95197600Y-16489200D01*
%TO.N,AUX_LIN_K_IO*%
X158000000Y-86971100D02*
X158000000Y-88000000D01*
X158226400Y-86744700D02*
X158000000Y-86971100D01*
X144153200Y-72671500D02*
X158226400Y-86744700D01*
X57891500Y-72671500D02*
X144153200Y-72671500D01*
X55000000Y-69780000D02*
X57891500Y-72671500D01*
%TD*%
M02*
