%TF.GenerationSoftware,KiCad,Pcbnew,10.0.3+dfsg-1*%
%TF.CreationDate,2026-06-30T05:56:31-04:00*%
%TF.ProjectId,teensy-41-true-dual-canfd-lin-r10,7465656e-7379-42d3-9431-2d747275652d,rev?*%
%TF.SameCoordinates,Original*%
%TF.FileFunction,Copper,L2,Bot*%
%TF.FilePolarity,Positive*%
%FSLAX46Y46*%
G04 Gerber Fmt 4.6, Leading zero omitted, Abs format (unit mm)*
G04 Created by KiCad (PCBNEW 10.0.3+dfsg-1) date 2026-06-30 05:56:31*
%MOMM*%
%LPD*%
G01*
G04 APERTURE LIST*
G04 Aperture macros list*
%AMRoundRect*
0 Rectangle with rounded corners*
0 $1 Rounding radius*
0 $2 $3 $4 $5 $6 $7 $8 $9 X,Y pos of 4 corners*
0 Add a 4 corners polygon primitive as box body*
4,1,4,$2,$3,$4,$5,$6,$7,$8,$9,$2,$3,0*
0 Add four circle primitives for the rounded corners*
1,1,$1+$1,$2,$3*
1,1,$1+$1,$4,$5*
1,1,$1+$1,$6,$7*
1,1,$1+$1,$8,$9*
0 Add four rect primitives between the rounded corners*
20,1,$1+$1,$2,$3,$4,$5,0*
20,1,$1+$1,$4,$5,$6,$7,0*
20,1,$1+$1,$6,$7,$8,$9,0*
20,1,$1+$1,$8,$9,$2,$3,0*%
G04 Aperture macros list end*
%TA.AperFunction,ComponentPad*%
%ADD10C,2.600000*%
%TD*%
%TA.AperFunction,ComponentPad*%
%ADD11C,1.800000*%
%TD*%
%TA.AperFunction,ComponentPad*%
%ADD12RoundRect,0.250000X-0.550000X-0.550000X0.550000X-0.550000X0.550000X0.550000X-0.550000X0.550000X0*%
%TD*%
%TA.AperFunction,ComponentPad*%
%ADD13C,1.600000*%
%TD*%
%TA.AperFunction,ComponentPad*%
%ADD14C,2.700000*%
%TD*%
%TA.AperFunction,ComponentPad*%
%ADD15R,1.700000X1.700000*%
%TD*%
%TA.AperFunction,ComponentPad*%
%ADD16C,1.700000*%
%TD*%
%TA.AperFunction,SMDPad,CuDef*%
%ADD17RoundRect,0.150000X0.825000X0.150000X-0.825000X0.150000X-0.825000X-0.150000X0.825000X-0.150000X0*%
%TD*%
%TA.AperFunction,SMDPad,CuDef*%
%ADD18RoundRect,0.150000X0.150000X-0.825000X0.150000X0.825000X-0.150000X0.825000X-0.150000X-0.825000X0*%
%TD*%
%TA.AperFunction,SMDPad,CuDef*%
%ADD19RoundRect,0.150000X-0.150000X0.825000X-0.150000X-0.825000X0.150000X-0.825000X0.150000X0.825000X0*%
%TD*%
%TA.AperFunction,ViaPad*%
%ADD20C,0.600000*%
%TD*%
%TA.AperFunction,Conductor*%
%ADD21C,0.200000*%
%TD*%
G04 APERTURE END LIST*
D10*
%TO.P,L1,1*%
%TO.N,BUCK_SW*%
X58000000Y-88000000D03*
%TO.P,L1,2*%
%TO.N,+5V_REGULATED*%
X63000000Y-88000000D03*
%TD*%
D11*
%TO.P,U1,0*%
%TO.N,N/C*%
X124000000Y-32120000D03*
%TO.P,U1,1*%
X124000000Y-34660000D03*
%TO.P,U1,2*%
%TO.N,CANFD_A_INT*%
X124000000Y-37200000D03*
%TO.P,U1,3*%
%TO.N,CANFD_B_INT*%
X124000000Y-39740000D03*
%TO.P,U1,3V3_B*%
%TO.N,+3V3*%
X124000000Y-65140000D03*
%TO.P,U1,4*%
%TO.N,N/C*%
X124000000Y-42279999D03*
%TO.P,U1,5*%
X124000000Y-44820000D03*
%TO.P,U1,6*%
%TO.N,LIN_EN*%
X124000000Y-47360000D03*
%TO.P,U1,7*%
%TO.N,LIN_RX*%
X124000000Y-49900000D03*
%TO.P,U1,8*%
%TO.N,LIN_TX*%
X124000000Y-52440000D03*
%TO.P,U1,9*%
%TO.N,CANFD_B_NCS*%
X124000000Y-54980000D03*
%TO.P,U1,10*%
%TO.N,CANFD_A_NCS*%
X124000000Y-57520000D03*
%TO.P,U1,11*%
%TO.N,CANFD_SPI_SDI_MOSI*%
X124000000Y-60060000D03*
%TO.P,U1,12*%
%TO.N,CANFD_SPI_SDO_MISO*%
X124000000Y-62600000D03*
%TO.P,U1,13*%
%TO.N,CANFD_SPI_SCK*%
X139240000Y-60060000D03*
%TO.P,U1,14*%
%TO.N,N/C*%
X139240000Y-57520000D03*
%TO.P,U1,15*%
X139240000Y-54980000D03*
%TO.P,U1,16*%
X139240000Y-52440000D03*
%TO.P,U1,17*%
X139240000Y-49900000D03*
%TO.P,U1,18*%
X139240000Y-47360000D03*
%TO.P,U1,19*%
X139240000Y-44820000D03*
%TO.P,U1,20*%
X139240000Y-42279999D03*
%TO.P,U1,21*%
X139240000Y-39740000D03*
%TO.P,U1,22*%
X139240000Y-37200000D03*
%TO.P,U1,23*%
X139240000Y-34660000D03*
%TO.P,U1,24*%
X124000000Y-67680000D03*
%TO.P,U1,25*%
X124000000Y-70220000D03*
%TO.P,U1,26*%
X124000000Y-72760000D03*
%TO.P,U1,27*%
X124000000Y-75300000D03*
%TO.P,U1,28*%
X124000000Y-77840000D03*
%TO.P,U1,29*%
X124000000Y-80380000D03*
%TO.P,U1,30*%
X124000000Y-82920000D03*
%TO.P,U1,31*%
X124000000Y-85460000D03*
%TO.P,U1,32*%
X124000000Y-88000000D03*
%TO.P,U1,33*%
X139240000Y-85460000D03*
%TO.P,U1,34*%
X139240000Y-82920000D03*
%TO.P,U1,35*%
X139240000Y-80380000D03*
%TO.P,U1,36*%
X139240000Y-77840000D03*
%TO.P,U1,37*%
X139240000Y-75300000D03*
%TO.P,U1,38*%
X139240000Y-72760000D03*
%TO.P,U1,39*%
X139240000Y-70220000D03*
%TO.P,U1,40*%
X139240000Y-67680000D03*
%TO.P,U1,41*%
X139240000Y-65140000D03*
%TO.P,U1,GND_B1*%
%TO.N,GND*%
X124000000Y-29580000D03*
%TO.P,U1,GND_T1*%
X139240000Y-29580000D03*
%TO.P,U1,GND_T2*%
X139240000Y-62600000D03*
%TO.P,U1,VIN*%
%TO.N,+5V_REGULATED*%
X139240000Y-32120000D03*
%TD*%
D12*
%TO.P,C1,1*%
%TO.N,+12V_PROTECTED*%
X18000000Y-96000000D03*
D13*
%TO.P,C1,2*%
%TO.N,GND*%
X21500000Y-96000000D03*
%TD*%
D14*
%TO.P,J1,1*%
%TO.N,OBD1_SINGLE_WIRE_CANDIDATE*%
X12000000Y-16000000D03*
%TO.P,J1,2*%
%TO.N,OBD2_SPARE_PWM_J1850_CANDIDATE*%
X12000000Y-21000000D03*
%TO.P,J1,3*%
%TO.N,OBD3_CAN_B_PAIR_A_CANDIDATE*%
X12000000Y-26000000D03*
%TO.P,J1,4*%
%TO.N,GND*%
X12000000Y-31000000D03*
%TO.P,J1,5*%
X12000000Y-36000000D03*
%TO.P,J1,6*%
%TO.N,OBD6_CAN_A_PAIR_A*%
X12000000Y-41000000D03*
%TO.P,J1,7*%
%TO.N,OBD7_SINGLE_WIRE_CANDIDATE*%
X12000000Y-46000000D03*
%TO.P,J1,8*%
%TO.N,OBD8_SINGLE_WIRE_CANDIDATE*%
X12000000Y-51000000D03*
%TO.P,J1,9*%
%TO.N,OBD9_SINGLE_WIRE_CANDIDATE*%
X19500000Y-16000000D03*
%TO.P,J1,10*%
%TO.N,OBD10_SPARE_PWM_J1850_CANDIDATE*%
X19500000Y-21000000D03*
%TO.P,J1,11*%
%TO.N,OBD11_CAN_B_PAIR_B_CANDIDATE*%
X19500000Y-26000000D03*
%TO.P,J1,12*%
%TO.N,OBD12_SINGLE_WIRE_CANDIDATE*%
X19500000Y-31000000D03*
%TO.P,J1,13*%
%TO.N,OBD13_SINGLE_WIRE_CANDIDATE*%
X19500000Y-36000000D03*
%TO.P,J1,14*%
%TO.N,OBD14_CAN_A_PAIR_B*%
X19500000Y-41000000D03*
%TO.P,J1,15*%
%TO.N,OBD15_SINGLE_WIRE_CANDIDATE*%
X19500000Y-46000000D03*
%TO.P,J1,16*%
%TO.N,+12V_OBD*%
X19500000Y-51000000D03*
%TD*%
D12*
%TO.P,C3,1*%
%TO.N,+5V_REGULATED*%
X72000000Y-96000000D03*
D13*
%TO.P,C3,2*%
%TO.N,GND*%
X75500000Y-96000000D03*
%TD*%
D12*
%TO.P,SW1,1*%
%TO.N,OBD6_CAN_A_PAIR_A*%
X55000000Y-13000000D03*
D13*
%TO.P,SW1,2*%
%TO.N,OBD14_CAN_A_PAIR_B*%
X55000000Y-15540000D03*
%TO.P,SW1,3*%
%TO.N,OBD6_CAN_A_PAIR_A*%
X55000000Y-18080000D03*
%TO.P,SW1,4*%
%TO.N,OBD14_CAN_A_PAIR_B*%
X55000000Y-20620000D03*
%TO.P,SW1,5*%
%TO.N,OBD3_CAN_B_PAIR_A_CANDIDATE*%
X55000000Y-23160000D03*
%TO.P,SW1,6*%
%TO.N,OBD11_CAN_B_PAIR_B_CANDIDATE*%
X55000000Y-25700000D03*
%TO.P,SW1,7*%
%TO.N,OBD3_CAN_B_PAIR_A_CANDIDATE*%
X55000000Y-28240000D03*
%TO.P,SW1,8*%
%TO.N,OBD11_CAN_B_PAIR_B_CANDIDATE*%
X55000000Y-30780000D03*
%TO.P,SW1,9*%
%TO.N,CAN_B_H*%
X62620000Y-30780000D03*
%TO.P,SW1,10*%
%TO.N,CAN_B_L*%
X62620000Y-28240000D03*
%TO.P,SW1,11*%
X62620000Y-25700000D03*
%TO.P,SW1,12*%
%TO.N,CAN_B_H*%
X62620000Y-23160000D03*
%TO.P,SW1,13*%
%TO.N,CAN_A_H*%
X62620000Y-20620000D03*
%TO.P,SW1,14*%
%TO.N,CAN_A_L*%
X62620000Y-18080000D03*
%TO.P,SW1,15*%
X62620000Y-15540000D03*
%TO.P,SW1,16*%
%TO.N,CAN_A_H*%
X62620000Y-13000000D03*
%TD*%
D12*
%TO.P,SW2,1*%
%TO.N,OBD7_SINGLE_WIRE_CANDIDATE*%
X55000000Y-52000000D03*
D13*
%TO.P,SW2,2*%
%TO.N,OBD15_SINGLE_WIRE_CANDIDATE*%
X55000000Y-54540000D03*
%TO.P,SW2,3*%
%TO.N,OBD1_SINGLE_WIRE_CANDIDATE*%
X55000000Y-57080000D03*
%TO.P,SW2,4*%
%TO.N,OBD8_SINGLE_WIRE_CANDIDATE*%
X55000000Y-59620000D03*
%TO.P,SW2,5*%
%TO.N,OBD9_SINGLE_WIRE_CANDIDATE*%
X55000000Y-62160000D03*
%TO.P,SW2,6*%
%TO.N,OBD12_SINGLE_WIRE_CANDIDATE*%
X55000000Y-64700000D03*
%TO.P,SW2,7*%
%TO.N,OBD13_SINGLE_WIRE_CANDIDATE*%
X55000000Y-67240000D03*
%TO.P,SW2,8*%
%TO.N,AUX_LIN_K_IO*%
X55000000Y-69780000D03*
%TO.P,SW2,9*%
%TO.N,LIN_BUS*%
X62620000Y-69780000D03*
%TO.P,SW2,10*%
X62620000Y-67240000D03*
%TO.P,SW2,11*%
X62620000Y-64700000D03*
%TO.P,SW2,12*%
X62620000Y-62160000D03*
%TO.P,SW2,13*%
X62620000Y-59620000D03*
%TO.P,SW2,14*%
X62620000Y-57080000D03*
%TO.P,SW2,15*%
X62620000Y-54540000D03*
%TO.P,SW2,16*%
X62620000Y-52000000D03*
%TD*%
D15*
%TO.P,J2,1*%
%TO.N,CAN_B_H*%
X158000000Y-62000000D03*
D16*
%TO.P,J2,2*%
%TO.N,CAN_B_L*%
X158000000Y-64540000D03*
%TO.P,J2,3*%
%TO.N,AUX_LIN_K_IO*%
X158000000Y-67080000D03*
%TO.P,J2,4*%
%TO.N,GND*%
X158000000Y-69620000D03*
%TO.P,J2,5*%
%TO.N,+5V_REGULATED*%
X158000000Y-72160000D03*
%TO.P,J2,6*%
%TO.N,+12V_PROTECTED*%
X158000000Y-74700000D03*
%TO.P,J2,7*%
%TO.N,CAN_A_H*%
X158000000Y-77240000D03*
%TO.P,J2,8*%
%TO.N,CAN_A_L*%
X158000000Y-79780000D03*
%TD*%
D17*
%TO.P,U7,1*%
%TO.N,CANFD_B_TXCAN*%
X194475000Y-58190000D03*
%TO.P,U7,2*%
%TO.N,CANFD_B_RXCAN*%
X194475000Y-59460000D03*
%TO.P,U7,3*%
%TO.N,N/C*%
X194475000Y-60730000D03*
%TO.P,U7,4*%
%TO.N,CANFD_B_INT*%
X194475000Y-62000000D03*
%TO.P,U7,5*%
%TO.N,CANFD_B_OSC2*%
X194475000Y-63270000D03*
%TO.P,U7,6*%
%TO.N,CANFD_B_OSC1*%
X194475000Y-64540000D03*
%TO.P,U7,7*%
%TO.N,GND*%
X194475000Y-65810000D03*
%TO.P,U7,8*%
%TO.N,N/C*%
X189525000Y-65810000D03*
%TO.P,U7,9*%
%TO.N,CANFD_B_XSTBY*%
X189525000Y-64540000D03*
%TO.P,U7,10*%
%TO.N,CANFD_SPI_SCK*%
X189525000Y-63270000D03*
%TO.P,U7,11*%
%TO.N,CANFD_SPI_SDI_MOSI*%
X189525000Y-62000000D03*
%TO.P,U7,12*%
%TO.N,CANFD_SPI_SDO_MISO*%
X189525000Y-60730000D03*
%TO.P,U7,13*%
%TO.N,CANFD_B_NCS*%
X189525000Y-59460000D03*
%TO.P,U7,14*%
%TO.N,+3V3*%
X189525000Y-58190000D03*
%TD*%
%TO.P,U3,1*%
%TO.N,CANFD_B_TXCAN*%
X134000000Y-55190000D03*
%TO.P,U3,2*%
%TO.N,GND*%
X134000000Y-56460000D03*
%TO.P,U3,3*%
%TO.N,+5V_REGULATED*%
X134000000Y-57730000D03*
%TO.P,U3,4*%
%TO.N,CANFD_B_RXCAN*%
X134000000Y-59000000D03*
%TO.P,U3,5*%
%TO.N,+3V3*%
X129050000Y-59000000D03*
%TO.P,U3,6*%
%TO.N,CAN_B_L*%
X129050000Y-57730000D03*
%TO.P,U3,7*%
%TO.N,CAN_B_H*%
X129050000Y-56460000D03*
%TO.P,U3,8*%
%TO.N,CANFD_B_XSTBY*%
X129050000Y-55190000D03*
%TD*%
D18*
%TO.P,U2,1*%
%TO.N,CANFD_A_TXCAN*%
X132930000Y-36570000D03*
%TO.P,U2,2*%
%TO.N,GND*%
X131660000Y-36570000D03*
%TO.P,U2,3*%
%TO.N,+5V_REGULATED*%
X130390000Y-36570000D03*
%TO.P,U2,4*%
%TO.N,CANFD_A_RXCAN*%
X129120000Y-36570000D03*
%TO.P,U2,5*%
%TO.N,+3V3*%
X129120000Y-31620000D03*
%TO.P,U2,6*%
%TO.N,CAN_A_L*%
X130390000Y-31620000D03*
%TO.P,U2,7*%
%TO.N,CAN_A_H*%
X131660000Y-31620000D03*
%TO.P,U2,8*%
%TO.N,CANFD_A_XSTBY*%
X132930000Y-31620000D03*
%TD*%
D19*
%TO.P,U4,1*%
%TO.N,LIN_RX*%
X129620000Y-79620000D03*
%TO.P,U4,2*%
%TO.N,LIN_EN*%
X130890000Y-79620000D03*
%TO.P,U4,3*%
%TO.N,N/C*%
X132160000Y-79620000D03*
%TO.P,U4,4*%
%TO.N,LIN_TX*%
X133430000Y-79620000D03*
%TO.P,U4,5*%
%TO.N,GND*%
X133430000Y-84570000D03*
%TO.P,U4,6*%
%TO.N,LIN_BUS*%
X132160000Y-84570000D03*
%TO.P,U4,7*%
%TO.N,+12V_PROTECTED*%
X130890000Y-84570000D03*
%TO.P,U4,8*%
%TO.N,N/C*%
X129620000Y-84570000D03*
%TD*%
D17*
%TO.P,U6,1*%
%TO.N,CANFD_A_TXCAN*%
X194475000Y-20190000D03*
%TO.P,U6,2*%
%TO.N,CANFD_A_RXCAN*%
X194475000Y-21460000D03*
%TO.P,U6,3*%
%TO.N,N/C*%
X194475000Y-22730000D03*
%TO.P,U6,4*%
%TO.N,CANFD_A_INT*%
X194475000Y-24000000D03*
%TO.P,U6,5*%
%TO.N,CANFD_A_OSC2*%
X194475000Y-25270000D03*
%TO.P,U6,6*%
%TO.N,CANFD_A_OSC1*%
X194475000Y-26540000D03*
%TO.P,U6,7*%
%TO.N,GND*%
X194475000Y-27810000D03*
%TO.P,U6,8*%
%TO.N,N/C*%
X189525000Y-27810000D03*
%TO.P,U6,9*%
%TO.N,CANFD_A_XSTBY*%
X189525000Y-26540000D03*
%TO.P,U6,10*%
%TO.N,CANFD_SPI_SCK*%
X189525000Y-25270000D03*
%TO.P,U6,11*%
%TO.N,CANFD_SPI_SDI_MOSI*%
X189525000Y-24000000D03*
%TO.P,U6,12*%
%TO.N,CANFD_SPI_SDO_MISO*%
X189525000Y-22730000D03*
%TO.P,U6,13*%
%TO.N,CANFD_A_NCS*%
X189525000Y-21460000D03*
%TO.P,U6,14*%
%TO.N,+3V3*%
X189525000Y-20190000D03*
%TD*%
D20*
%TO.N,+5V_REGULATED*%
X38281700Y-89755500D03*
X85274600Y-40244900D03*
X63856300Y-65801700D03*
%TO.N,GND*%
X197697600Y-54545000D03*
X196335400Y-27959900D03*
X95545500Y-26507900D03*
X88262600Y-63406700D03*
X22039000Y-60452800D03*
X88262600Y-38874100D03*
%TO.N,CANFD_A_INT*%
X192510000Y-29211300D03*
%TO.N,CANFD_B_INT*%
X192735700Y-48637200D03*
%TO.N,+3V3*%
X191237900Y-54366000D03*
X131578400Y-62281600D03*
X186756300Y-21462500D03*
X189592000Y-57373400D03*
X186762400Y-27249900D03*
%TO.N,CANFD_B_NCS*%
X188771600Y-56868600D03*
%TO.N,CANFD_SPI_SDI_MOSI*%
X185394400Y-58851500D03*
%TO.N,CANFD_SPI_SDO_MISO*%
X184472800Y-56892300D03*
%TO.N,+12V_PROTECTED*%
X129275200Y-81955800D03*
%TO.N,CAN_A_L*%
X129932100Y-25025900D03*
%TO.N,CANFD_B_OSC1*%
X208570600Y-63406700D03*
%TO.N,OBD6_CAN_A_PAIR_A*%
X14321200Y-27448400D03*
%TO.N,CAN_B_H*%
X131183200Y-59198500D03*
X128041200Y-45959100D03*
%TO.N,CANFD_A_OSC1*%
X208559400Y-25064500D03*
%TO.N,CANFD_A_OSC2*%
X196335400Y-24928300D03*
%TO.N,CANFD_B_OSC2*%
X195987900Y-63491200D03*
%TO.N,CANFD_B_XSTBY*%
X177713800Y-68286200D03*
X142736400Y-68286200D03*
%TO.N,CAN_B_L*%
X137718200Y-68314900D03*
X72985700Y-42729400D03*
X153590000Y-68950000D03*
X127238900Y-46037900D03*
%TO.N,LIN_BUS*%
X114467200Y-65046700D03*
%TO.N,CAN_A_H*%
X129952000Y-22053700D03*
%TO.N,CANFD_A_TXCAN*%
X191899200Y-20814200D03*
X138289000Y-27152300D03*
%TO.N,AUX_LIN_K_IO*%
X156742200Y-88102100D03*
%TD*%
%TO.N,+5V_REGULATED*%
D21*
X134714100Y-61330000D02*
X139805600Y-61330000D01*
X150635600Y-72160000D02*
X158000000Y-72160000D01*
X63000000Y-88000000D02*
X63856300Y-87143700D01*
X138211200Y-28351200D02*
X139760500Y-28351200D01*
X134000000Y-57730000D02*
X133579000Y-57730000D01*
X130390000Y-36570000D02*
X130390000Y-36172400D01*
X130390000Y-36172400D02*
X138211200Y-28351200D01*
X139805600Y-61330000D02*
X150635600Y-72160000D01*
X63856300Y-65801700D02*
X85274600Y-44383400D01*
X63000000Y-89755500D02*
X38281700Y-89755500D01*
X140477600Y-30882400D02*
X139240000Y-32120000D01*
X132714800Y-59330700D02*
X134714100Y-61330000D01*
X132714800Y-58594200D02*
X132714800Y-59330700D01*
X63856300Y-87143700D02*
X63856300Y-65801700D01*
X85274600Y-44383400D02*
X85274600Y-40244900D01*
X69244500Y-96000000D02*
X63000000Y-89755500D01*
X63000000Y-89755500D02*
X63000000Y-88000000D01*
X133579000Y-57730000D02*
X132714800Y-58594200D01*
X72000000Y-96000000D02*
X69244500Y-96000000D01*
X130390000Y-54532400D02*
X130390000Y-36570000D01*
X133587600Y-57730000D02*
X130390000Y-54532400D01*
X134000000Y-57730000D02*
X133587600Y-57730000D01*
X140477600Y-29068300D02*
X140477600Y-30882400D01*
X139760500Y-28351200D02*
X140477600Y-29068300D01*
%TO.N,GND*%
X139240000Y-62600000D02*
X140384100Y-62600000D01*
X75500000Y-96000000D02*
X75500000Y-76169300D01*
X22039000Y-60452800D02*
X19829800Y-62662000D01*
X131660000Y-36199400D02*
X138279400Y-29580000D01*
X194475000Y-27810000D02*
X196185500Y-27810000D01*
X151110600Y-73326500D02*
X158468000Y-73326500D01*
X131660000Y-54477100D02*
X133642900Y-56460000D01*
X95545500Y-31591200D02*
X95545500Y-26507900D01*
X131660000Y-36570000D02*
X131660000Y-36199400D01*
X194475000Y-65810000D02*
X195117600Y-65810000D01*
X158468000Y-73326500D02*
X159175600Y-72618900D01*
X133810000Y-84190000D02*
X155850200Y-84190000D01*
X195117600Y-65810000D02*
X197697600Y-63230000D01*
X12000000Y-36000000D02*
X22039000Y-46039000D01*
X22039000Y-46039000D02*
X22039000Y-60452800D01*
X155850200Y-84190000D02*
X159565400Y-80474800D01*
X197697600Y-29322100D02*
X196335400Y-27959900D01*
X197697600Y-63230000D02*
X197697600Y-54545000D01*
X159175600Y-70795600D02*
X158000000Y-69620000D01*
X159565400Y-80474800D02*
X159565400Y-74423900D01*
X88262600Y-38874100D02*
X95545500Y-31591200D01*
X159175600Y-72618900D02*
X159175600Y-70795600D01*
X159565400Y-74423900D02*
X158468000Y-73326500D01*
X133430000Y-84570000D02*
X133810000Y-84190000D01*
X197697600Y-54545000D02*
X197697600Y-29322100D01*
X138279400Y-29580000D02*
X139240000Y-29580000D01*
X196185500Y-27810000D02*
X196335400Y-27959900D01*
X131660000Y-36570000D02*
X131660000Y-54477100D01*
X75500000Y-76169300D02*
X88262600Y-63406700D01*
X12000000Y-36000000D02*
X12000000Y-31000000D01*
X133642900Y-56460000D02*
X134000000Y-56460000D01*
X140384100Y-62600000D02*
X151110600Y-73326500D01*
X19829800Y-62662000D02*
X19829800Y-94329800D01*
X19829800Y-94329800D02*
X21500000Y-96000000D01*
X88262600Y-63406700D02*
X88262600Y-38874100D01*
%TO.N,CANFD_A_INT*%
X192510000Y-25535000D02*
X194045000Y-24000000D01*
X192510000Y-29211300D02*
X192510000Y-25535000D01*
X194045000Y-24000000D02*
X194475000Y-24000000D01*
%TO.N,CANFD_B_INT*%
X196201700Y-52103200D02*
X196201700Y-60671700D01*
X194873400Y-62000000D02*
X194475000Y-62000000D01*
X196201700Y-60671700D02*
X194873400Y-62000000D01*
X192735700Y-48637200D02*
X196201700Y-52103200D01*
%TO.N,+3V3*%
X189525000Y-20190000D02*
X188028800Y-20190000D01*
X129120000Y-31620000D02*
X126637200Y-34102800D01*
X126637200Y-56940900D02*
X128696300Y-59000000D01*
X126637200Y-34102800D02*
X126637200Y-56940900D01*
X188028800Y-20190000D02*
X186756300Y-21462500D01*
X191237900Y-54366000D02*
X186762400Y-49890500D01*
X189525000Y-57440400D02*
X189592000Y-57373400D01*
X129050000Y-59753200D02*
X131578400Y-62281600D01*
X128696300Y-59000000D02*
X129050000Y-59000000D01*
X189525000Y-58190000D02*
X189525000Y-57440400D01*
X186762400Y-49890500D02*
X186762400Y-27249900D01*
X129050000Y-59000000D02*
X129050000Y-59753200D01*
%TO.N,LIN_EN*%
X124000000Y-47360000D02*
X121987200Y-49372800D01*
X130890000Y-79966700D02*
X130890000Y-79620000D01*
X123548600Y-68950000D02*
X124511300Y-68950000D01*
X129283900Y-80952300D02*
X129904400Y-80952300D01*
X128741000Y-73179700D02*
X128741000Y-80409400D01*
X121987200Y-67388600D02*
X123548600Y-68950000D01*
X129904400Y-80952300D02*
X130890000Y-79966700D01*
X121987200Y-49372800D02*
X121987200Y-67388600D01*
X124511300Y-68950000D02*
X128741000Y-73179700D01*
X128741000Y-80409400D02*
X129283900Y-80952300D01*
%TO.N,LIN_RX*%
X122388900Y-57619900D02*
X123559000Y-58790000D01*
X129620000Y-63972700D02*
X129620000Y-79620000D01*
X124000000Y-49900000D02*
X122388900Y-51511100D01*
X123559000Y-58790000D02*
X124437300Y-58790000D01*
X124437300Y-58790000D02*
X129620000Y-63972700D01*
X122388900Y-51511100D02*
X122388900Y-57619900D01*
%TO.N,LIN_TX*%
X133028300Y-65729000D02*
X133028300Y-79218300D01*
X124000000Y-52440000D02*
X125232000Y-53672000D01*
X133028300Y-79218300D02*
X133430000Y-79620000D01*
X125232000Y-53672000D02*
X125232000Y-57932700D01*
X125232000Y-57932700D02*
X133028300Y-65729000D01*
%TO.N,CANFD_B_NCS*%
X189525000Y-59460000D02*
X189126300Y-59460000D01*
X189126300Y-59460000D02*
X188247700Y-58581400D01*
X188247700Y-57392500D02*
X188771600Y-56868600D01*
X188247700Y-58581400D02*
X188247700Y-57392500D01*
%TO.N,CANFD_A_NCS*%
X125231800Y-50440200D02*
X124433700Y-51238300D01*
X190881900Y-19914700D02*
X190533900Y-19566700D01*
X190881900Y-20542900D02*
X190881900Y-19914700D01*
X122790600Y-51950000D02*
X122790600Y-56310600D01*
X122790600Y-56310600D02*
X124000000Y-57520000D01*
X124433700Y-51238300D02*
X123502300Y-51238300D01*
X131581600Y-19566700D02*
X125231800Y-25916500D01*
X125231800Y-25916500D02*
X125231800Y-50440200D01*
X189525000Y-21460000D02*
X189964800Y-21460000D01*
X190533900Y-19566700D02*
X131581600Y-19566700D01*
X189964800Y-21460000D02*
X190881900Y-20542900D01*
X123502300Y-51238300D02*
X122790600Y-51950000D01*
%TO.N,CANFD_SPI_SDI_MOSI*%
X189525000Y-24000000D02*
X189911400Y-24000000D01*
X195474300Y-62635000D02*
X190160000Y-62635000D01*
X189525000Y-62000000D02*
X188542900Y-62000000D01*
X196613600Y-51327700D02*
X196613600Y-61495700D01*
X189911400Y-24000000D02*
X191306600Y-25395200D01*
X191306600Y-25395200D02*
X191306600Y-46020700D01*
X190160000Y-62635000D02*
X189525000Y-62000000D01*
X196613600Y-61495700D02*
X195474300Y-62635000D01*
X188542900Y-62000000D02*
X185394400Y-58851500D01*
X191306600Y-46020700D02*
X196613600Y-51327700D01*
%TO.N,CANFD_SPI_SDO_MISO*%
X195457700Y-60095000D02*
X195771200Y-59781500D01*
X195771200Y-57871500D02*
X188202400Y-50302700D01*
X190580300Y-25905000D02*
X188530400Y-25905000D01*
X187821000Y-23479500D02*
X188570500Y-22730000D01*
X188530400Y-25905000D02*
X187821000Y-25195600D01*
X190545700Y-27175000D02*
X190814500Y-26906200D01*
X188310500Y-60730000D02*
X184472800Y-56892300D01*
X187821000Y-25195600D02*
X187821000Y-23479500D01*
X190814500Y-26906200D02*
X190814500Y-26139200D01*
X188570500Y-22730000D02*
X189525000Y-22730000D01*
X190160000Y-60095000D02*
X195457700Y-60095000D01*
X188488200Y-27175000D02*
X190545700Y-27175000D01*
X195771200Y-59781500D02*
X195771200Y-57871500D01*
X188202400Y-50302700D02*
X188202400Y-27460800D01*
X189525000Y-60730000D02*
X188310500Y-60730000D01*
X190814500Y-26139200D02*
X190580300Y-25905000D01*
X189525000Y-60730000D02*
X190160000Y-60095000D01*
X188202400Y-27460800D02*
X188488200Y-27175000D01*
%TO.N,CANFD_SPI_SCK*%
X189115400Y-25270000D02*
X189525000Y-25270000D01*
X142450000Y-63270000D02*
X139240000Y-60060000D01*
X197015300Y-40166500D02*
X191908200Y-35059400D01*
X195491200Y-63905000D02*
X195688700Y-64102500D01*
X188244300Y-23644800D02*
X188244300Y-24398900D01*
X189525000Y-63270000D02*
X190160000Y-63905000D01*
X191908200Y-24760800D02*
X190512400Y-23365000D01*
X191908200Y-35059400D02*
X191908200Y-24760800D01*
X195688700Y-64102500D02*
X196252400Y-64102500D01*
X196252400Y-64102500D02*
X197015300Y-63339600D01*
X188524100Y-23365000D02*
X188244300Y-23644800D01*
X188244300Y-24398900D02*
X189115400Y-25270000D01*
X197015300Y-63339600D02*
X197015300Y-40166500D01*
X190160000Y-63905000D02*
X195491200Y-63905000D01*
X189525000Y-63270000D02*
X142450000Y-63270000D01*
X190512400Y-23365000D02*
X188524100Y-23365000D01*
%TO.N,+12V_PROTECTED*%
X129275200Y-81955800D02*
X130890000Y-83570600D01*
X130890000Y-83570600D02*
X130890000Y-84570000D01*
%TO.N,CAN_A_L*%
X128037600Y-59602300D02*
X127772700Y-59337400D01*
X62620000Y-15540000D02*
X62620000Y-18080000D01*
X126189000Y-32897900D02*
X128828900Y-30258000D01*
X127772700Y-59254700D02*
X126189000Y-57671000D01*
X158000000Y-79780000D02*
X156343100Y-79780000D01*
X126189000Y-57671000D02*
X126189000Y-32897900D01*
X137362100Y-68926700D02*
X128037700Y-59602300D01*
X156343100Y-79780000D02*
X145489800Y-68926700D01*
X128037700Y-59602300D02*
X128037600Y-59602300D01*
X145489800Y-68926700D02*
X137362100Y-68926700D01*
X130390000Y-30715900D02*
X129932100Y-30258000D01*
X129932100Y-30258000D02*
X129932100Y-25025900D01*
X128828900Y-30258000D02*
X129932100Y-30258000D01*
X130390000Y-31620000D02*
X130390000Y-30715900D01*
X127772700Y-59337400D02*
X127772700Y-59254700D01*
%TO.N,CANFD_B_OSC1*%
X205527900Y-66449400D02*
X208570600Y-63406700D01*
X194107300Y-64540000D02*
X193190100Y-65457200D01*
X193454400Y-66449400D02*
X205527900Y-66449400D01*
X194475000Y-64540000D02*
X194107300Y-64540000D01*
X193190100Y-65457200D02*
X193190100Y-66185100D01*
X193190100Y-66185100D02*
X193454400Y-66449400D01*
%TO.N,OBD1_SINGLE_WIRE_CANDIDATE*%
X53897300Y-48009100D02*
X20191000Y-14302800D01*
X20191000Y-14302800D02*
X13697200Y-14302800D01*
X55000000Y-57080000D02*
X53897300Y-55977300D01*
X13697200Y-14302800D02*
X12000000Y-16000000D01*
X53897300Y-55977300D02*
X53897300Y-48009100D01*
%TO.N,OBD3_CAN_B_PAIR_A_CANDIDATE*%
X56169800Y-27070200D02*
X56169800Y-24329800D01*
X56169800Y-24329800D02*
X55000000Y-23160000D01*
X55000000Y-28240000D02*
X56169800Y-27070200D01*
%TO.N,OBD6_CAN_A_PAIR_A*%
X56169800Y-16910200D02*
X56169800Y-14169800D01*
X14321200Y-27448400D02*
X13198000Y-27448400D01*
X13198000Y-27448400D02*
X10337200Y-30309200D01*
X56169800Y-14169800D02*
X55000000Y-13000000D01*
X10337200Y-39337200D02*
X12000000Y-41000000D01*
X55000000Y-18080000D02*
X56169800Y-16910200D01*
X10337200Y-30309200D02*
X10337200Y-39337200D01*
%TO.N,OBD9_SINGLE_WIRE_CANDIDATE*%
X22851300Y-19351300D02*
X19500000Y-16000000D01*
X55000000Y-62160000D02*
X22851300Y-30011300D01*
X22851300Y-30011300D02*
X22851300Y-19351300D01*
%TO.N,OBD11_CAN_B_PAIR_B_CANDIDATE*%
X53830200Y-29610200D02*
X53830200Y-26869800D01*
X55000000Y-30780000D02*
X53830200Y-29610200D01*
X53830200Y-26869800D02*
X55000000Y-25700000D01*
%TO.N,OBD12_SINGLE_WIRE_CANDIDATE*%
X21300000Y-31000000D02*
X19500000Y-31000000D01*
X55000000Y-64700000D02*
X21300000Y-31000000D01*
%TO.N,OBD13_SINGLE_WIRE_CANDIDATE*%
X50740000Y-67240000D02*
X55000000Y-67240000D01*
X19500000Y-36000000D02*
X50740000Y-67240000D01*
%TO.N,OBD14_CAN_A_PAIR_B*%
X53830200Y-19450200D02*
X53830200Y-16709800D01*
X55000000Y-20620000D02*
X53830200Y-19450200D01*
X53830200Y-16709800D02*
X55000000Y-15540000D01*
%TO.N,CAN_B_H*%
X127756600Y-48157300D02*
X128041200Y-47872700D01*
X63789800Y-24329800D02*
X63789800Y-29610200D01*
X131183200Y-59198500D02*
X131183200Y-58248500D01*
X131183200Y-58248500D02*
X129394700Y-56460000D01*
X129050000Y-56460000D02*
X128705300Y-56460000D01*
X62620000Y-23160000D02*
X63789800Y-24329800D01*
X129394700Y-56460000D02*
X129050000Y-56460000D01*
X128705300Y-56460000D02*
X127756600Y-55511300D01*
X127756600Y-55511300D02*
X127756600Y-48157300D01*
X63789800Y-29610200D02*
X62620000Y-30780000D01*
X128041200Y-47872700D02*
X128041200Y-45959100D01*
%TO.N,CANFD_A_OSC1*%
X208559400Y-25064500D02*
X207083900Y-26540000D01*
X207083900Y-26540000D02*
X194475000Y-26540000D01*
%TO.N,CANFD_A_OSC2*%
X194475000Y-25270000D02*
X195993700Y-25270000D01*
X195993700Y-25270000D02*
X196335400Y-24928300D01*
%TO.N,CANFD_B_TXCAN*%
X194211100Y-58190000D02*
X194475000Y-58190000D01*
X135414000Y-53776000D02*
X189797100Y-53776000D01*
X189797100Y-53776000D02*
X194211100Y-58190000D01*
X134000000Y-55190000D02*
X135414000Y-53776000D01*
%TO.N,CANFD_B_RXCAN*%
X193205000Y-59460000D02*
X190011900Y-56266900D01*
X190011900Y-56266900D02*
X137673600Y-56266900D01*
X134940500Y-59000000D02*
X134000000Y-59000000D01*
X194475000Y-59460000D02*
X193205000Y-59460000D01*
X137673600Y-56266900D02*
X134940500Y-59000000D01*
%TO.N,CANFD_B_OSC2*%
X194475000Y-63270000D02*
X195766700Y-63270000D01*
X195766700Y-63270000D02*
X195987900Y-63491200D01*
%TO.N,CANFD_B_XSTBY*%
X142736400Y-68286200D02*
X140791900Y-66341700D01*
X181460000Y-64540000D02*
X177713800Y-68286200D01*
X131784900Y-59384900D02*
X131784900Y-57492700D01*
X131784900Y-57492700D02*
X129482200Y-55190000D01*
X138741700Y-66341700D02*
X131784900Y-59384900D01*
X129482200Y-55190000D02*
X129050000Y-55190000D01*
X140791900Y-66341700D02*
X138741700Y-66341700D01*
X189525000Y-64540000D02*
X181460000Y-64540000D01*
%TO.N,CAN_B_L*%
X61485900Y-29374100D02*
X61485900Y-31229600D01*
X129453600Y-57730000D02*
X130526500Y-58802900D01*
X158000000Y-64540000D02*
X153590000Y-68950000D01*
X137718200Y-67419000D02*
X137718200Y-68314900D01*
X127238900Y-56273400D02*
X128695500Y-57730000D01*
X61485900Y-31229600D02*
X72985700Y-42729400D01*
X62620000Y-25700000D02*
X62620000Y-28240000D01*
X62620000Y-28240000D02*
X61485900Y-29374100D01*
X129050000Y-57730000D02*
X129453600Y-57730000D01*
X127238900Y-46037900D02*
X127238900Y-56273400D01*
X128695500Y-57730000D02*
X129050000Y-57730000D01*
X130526500Y-58802900D02*
X130526500Y-60227300D01*
X130526500Y-60227300D02*
X137718200Y-67419000D01*
%TO.N,LIN_BUS*%
X123450500Y-74030000D02*
X124434700Y-74030000D01*
X114467200Y-65046700D02*
X123450500Y-74030000D01*
X62620000Y-57080000D02*
X62620000Y-59620000D01*
X62620000Y-62160000D02*
X62620000Y-64700000D01*
X127730400Y-77325700D02*
X127730400Y-79966900D01*
X127730400Y-79966900D02*
X129117500Y-81354000D01*
X62620000Y-59620000D02*
X62620000Y-62160000D01*
X62620000Y-64700000D02*
X62620000Y-67240000D01*
X129117500Y-81354000D02*
X129580200Y-81354000D01*
X132160000Y-83933800D02*
X132160000Y-84570000D01*
X124434700Y-74030000D02*
X127730400Y-77325700D01*
X129580200Y-81354000D02*
X132160000Y-83933800D01*
X62620000Y-67240000D02*
X62620000Y-69780000D01*
X62620000Y-54540000D02*
X62620000Y-57080000D01*
X62620000Y-52000000D02*
X62620000Y-54540000D01*
%TO.N,CAN_A_H*%
X133430000Y-66139100D02*
X133430000Y-65562700D01*
X159163700Y-80308500D02*
X158529000Y-80943200D01*
X150307600Y-80943200D02*
X140854400Y-71490000D01*
X125633700Y-26372000D02*
X129952000Y-22053700D01*
X159163700Y-78403700D02*
X159163700Y-80308500D01*
X133430000Y-65562700D02*
X125633700Y-57766400D01*
X125633700Y-57766400D02*
X125633700Y-26372000D01*
X62620000Y-13000000D02*
X63789800Y-14169800D01*
X140854400Y-71490000D02*
X138780900Y-71490000D01*
X63789800Y-14169800D02*
X63789800Y-19450200D01*
X63789800Y-19450200D02*
X62620000Y-20620000D01*
X131660000Y-31620000D02*
X131660000Y-23761700D01*
X158000000Y-77240000D02*
X159163700Y-78403700D01*
X138780900Y-71490000D02*
X133430000Y-66139100D01*
X131660000Y-23761700D02*
X129952000Y-22053700D01*
X158529000Y-80943200D02*
X150307600Y-80943200D01*
%TO.N,CANFD_A_TXCAN*%
X139129700Y-27152400D02*
X138289000Y-27152400D01*
X192523400Y-20190000D02*
X191899200Y-20814200D01*
X138289000Y-27152400D02*
X138289000Y-27152300D01*
X140907800Y-32199000D02*
X140907800Y-28930500D01*
X132930000Y-36570000D02*
X136110000Y-33390000D01*
X140907800Y-28930500D02*
X139129700Y-27152400D01*
X136110000Y-33390000D02*
X139716800Y-33390000D01*
X139716800Y-33390000D02*
X140907800Y-32199000D01*
X194475000Y-20190000D02*
X192523400Y-20190000D01*
%TO.N,CANFD_A_RXCAN*%
X193840000Y-22095000D02*
X194475000Y-21460000D01*
X132295000Y-30581100D02*
X140781100Y-22095000D01*
X129120000Y-35795700D02*
X132295000Y-32620700D01*
X132295000Y-32620700D02*
X132295000Y-30581100D01*
X140781100Y-22095000D02*
X193840000Y-22095000D01*
X129120000Y-36570000D02*
X129120000Y-35795700D01*
%TO.N,CANFD_A_XSTBY*%
X189525000Y-26540000D02*
X138010000Y-26540000D01*
X138010000Y-26540000D02*
X132930000Y-31620000D01*
%TO.N,AUX_LIN_K_IO*%
X159967100Y-69047100D02*
X158000000Y-67080000D01*
X156742200Y-88102100D02*
X159967100Y-84877200D01*
X159967100Y-84877200D02*
X159967100Y-69047100D01*
%TD*%
M02*
