%TF.GenerationSoftware,KiCad,Pcbnew,10.0.3+dfsg-1*%
%TF.CreationDate,2026-06-30T05:56:31-04:00*%
%TF.ProjectId,teensy-41-true-dual-canfd-lin-r10,7465656e-7379-42d3-9431-2d747275652d,rev?*%
%TF.SameCoordinates,Original*%
%TF.FileFunction,Copper,L1,Top*%
%TF.FilePolarity,Positive*%
%FSLAX46Y46*%
G04 Gerber Fmt 4.6, Leading zero omitted, Abs format (unit mm)*
G04 Created by KiCad (PCBNEW 10.0.3+dfsg-1) date 2026-06-30 05:56:31*
%MOMM*%
%LPD*%
G01*
G04 APERTURE LIST*
G04 Aperture macros list*
%AMRoundRect*
0 Rectangle with rounded corners*
0 $1 Rounding radius*
0 $2 $3 $4 $5 $6 $7 $8 $9 X,Y pos of 4 corners*
0 Add a 4 corners polygon primitive as box body*
4,1,4,$2,$3,$4,$5,$6,$7,$8,$9,$2,$3,0*
0 Add four circle primitives for the rounded corners*
1,1,$1+$1,$2,$3*
1,1,$1+$1,$4,$5*
1,1,$1+$1,$6,$7*
1,1,$1+$1,$8,$9*
0 Add four rect primitives between the rounded corners*
20,1,$1+$1,$2,$3,$4,$5,0*
20,1,$1+$1,$4,$5,$6,$7,0*
20,1,$1+$1,$6,$7,$8,$9,0*
20,1,$1+$1,$8,$9,$2,$3,0*%
G04 Aperture macros list end*
%TA.AperFunction,SMDPad,CuDef*%
%ADD10RoundRect,0.250000X-0.337500X-0.475000X0.337500X-0.475000X0.337500X0.475000X-0.337500X0.475000X0*%
%TD*%
%TA.AperFunction,SMDPad,CuDef*%
%ADD11C,1.500000*%
%TD*%
%TA.AperFunction,ComponentPad*%
%ADD12C,2.600000*%
%TD*%
%TA.AperFunction,ComponentPad*%
%ADD13C,1.800000*%
%TD*%
%TA.AperFunction,ComponentPad*%
%ADD14RoundRect,0.250000X-0.550000X-0.550000X0.550000X-0.550000X0.550000X0.550000X-0.550000X0.550000X0*%
%TD*%
%TA.AperFunction,ComponentPad*%
%ADD15C,1.600000*%
%TD*%
%TA.AperFunction,SMDPad,CuDef*%
%ADD16RoundRect,0.250000X0.475000X-0.337500X0.475000X0.337500X-0.475000X0.337500X-0.475000X-0.337500X0*%
%TD*%
%TA.AperFunction,ComponentPad*%
%ADD17C,2.700000*%
%TD*%
%TA.AperFunction,SMDPad,CuDef*%
%ADD18RoundRect,0.250000X-0.375000X-0.625000X0.375000X-0.625000X0.375000X0.625000X-0.375000X0.625000X0*%
%TD*%
%TA.AperFunction,SMDPad,CuDef*%
%ADD19RoundRect,0.250000X-1.000000X-0.650000X1.000000X-0.650000X1.000000X0.650000X-1.000000X0.650000X0*%
%TD*%
%TA.AperFunction,SMDPad,CuDef*%
%ADD20RoundRect,0.250000X0.650000X-0.800000X0.650000X0.800000X-0.650000X0.800000X-0.650000X-0.800000X0*%
%TD*%
%TA.AperFunction,SMDPad,CuDef*%
%ADD21RoundRect,0.250000X-0.475000X0.337500X-0.475000X-0.337500X0.475000X-0.337500X0.475000X0.337500X0*%
%TD*%
%TA.AperFunction,SMDPad,CuDef*%
%ADD22RoundRect,0.250000X-0.350000X-0.450000X0.350000X-0.450000X0.350000X0.450000X-0.350000X0.450000X0*%
%TD*%
%TA.AperFunction,SMDPad,CuDef*%
%ADD23RoundRect,0.250000X-2.050000X-0.300000X2.050000X-0.300000X2.050000X0.300000X-2.050000X0.300000X0*%
%TD*%
%TA.AperFunction,SMDPad,CuDef*%
%ADD24RoundRect,0.250002X-4.449998X-5.149998X4.449998X-5.149998X4.449998X5.149998X-4.449998X5.149998X0*%
%TD*%
%TA.AperFunction,ComponentPad*%
%ADD25R,1.700000X1.700000*%
%TD*%
%TA.AperFunction,ComponentPad*%
%ADD26C,1.700000*%
%TD*%
%TA.AperFunction,ViaPad*%
%ADD27C,0.600000*%
%TD*%
%TA.AperFunction,Conductor*%
%ADD28C,0.200000*%
%TD*%
G04 APERTURE END LIST*
D10*
%TO.P,C5,1*%
%TO.N,+5V_REGULATED*%
X84962500Y-18000000D03*
%TO.P,C5,2*%
%TO.N,GND*%
X87037500Y-18000000D03*
%TD*%
D11*
%TO.P,TP2,1*%
%TO.N,+5V_REGULATED*%
X44000000Y-60000000D03*
%TD*%
D12*
%TO.P,L1,1*%
%TO.N,BUCK_SW*%
X58000000Y-88000000D03*
%TO.P,L1,2*%
%TO.N,+5V_REGULATED*%
X63000000Y-88000000D03*
%TD*%
D13*
%TO.P,U1,0*%
%TO.N,N/C*%
X124000000Y-32120000D03*
%TO.P,U1,1*%
X124000000Y-34660000D03*
%TO.P,U1,2*%
%TO.N,CANFD_A_INT*%
X124000000Y-37200000D03*
%TO.P,U1,3*%
%TO.N,CANFD_B_INT*%
X124000000Y-39740000D03*
%TO.P,U1,3V3_B*%
%TO.N,+3V3*%
X124000000Y-65140000D03*
%TO.P,U1,4*%
%TO.N,N/C*%
X124000000Y-42279999D03*
%TO.P,U1,5*%
X124000000Y-44820000D03*
%TO.P,U1,6*%
%TO.N,LIN_EN*%
X124000000Y-47360000D03*
%TO.P,U1,7*%
%TO.N,LIN_RX*%
X124000000Y-49900000D03*
%TO.P,U1,8*%
%TO.N,LIN_TX*%
X124000000Y-52440000D03*
%TO.P,U1,9*%
%TO.N,CANFD_B_NCS*%
X124000000Y-54980000D03*
%TO.P,U1,10*%
%TO.N,CANFD_A_NCS*%
X124000000Y-57520000D03*
%TO.P,U1,11*%
%TO.N,CANFD_SPI_SDI_MOSI*%
X124000000Y-60060000D03*
%TO.P,U1,12*%
%TO.N,CANFD_SPI_SDO_MISO*%
X124000000Y-62600000D03*
%TO.P,U1,13*%
%TO.N,CANFD_SPI_SCK*%
X139240000Y-60060000D03*
%TO.P,U1,14*%
%TO.N,N/C*%
X139240000Y-57520000D03*
%TO.P,U1,15*%
X139240000Y-54980000D03*
%TO.P,U1,16*%
X139240000Y-52440000D03*
%TO.P,U1,17*%
X139240000Y-49900000D03*
%TO.P,U1,18*%
X139240000Y-47360000D03*
%TO.P,U1,19*%
X139240000Y-44820000D03*
%TO.P,U1,20*%
X139240000Y-42279999D03*
%TO.P,U1,21*%
X139240000Y-39740000D03*
%TO.P,U1,22*%
X139240000Y-37200000D03*
%TO.P,U1,23*%
X139240000Y-34660000D03*
%TO.P,U1,24*%
X124000000Y-67680000D03*
%TO.P,U1,25*%
X124000000Y-70220000D03*
%TO.P,U1,26*%
X124000000Y-72760000D03*
%TO.P,U1,27*%
X124000000Y-75300000D03*
%TO.P,U1,28*%
X124000000Y-77840000D03*
%TO.P,U1,29*%
X124000000Y-80380000D03*
%TO.P,U1,30*%
X124000000Y-82920000D03*
%TO.P,U1,31*%
X124000000Y-85460000D03*
%TO.P,U1,32*%
X124000000Y-88000000D03*
%TO.P,U1,33*%
X139240000Y-85460000D03*
%TO.P,U1,34*%
X139240000Y-82920000D03*
%TO.P,U1,35*%
X139240000Y-80380000D03*
%TO.P,U1,36*%
X139240000Y-77840000D03*
%TO.P,U1,37*%
X139240000Y-75300000D03*
%TO.P,U1,38*%
X139240000Y-72760000D03*
%TO.P,U1,39*%
X139240000Y-70220000D03*
%TO.P,U1,40*%
X139240000Y-67680000D03*
%TO.P,U1,41*%
X139240000Y-65140000D03*
%TO.P,U1,GND_B1*%
%TO.N,GND*%
X124000000Y-29580000D03*
%TO.P,U1,GND_T1*%
X139240000Y-29580000D03*
%TO.P,U1,GND_T2*%
X139240000Y-62600000D03*
%TO.P,U1,VIN*%
%TO.N,+5V_REGULATED*%
X139240000Y-32120000D03*
%TD*%
D14*
%TO.P,C1,1*%
%TO.N,+12V_PROTECTED*%
X18000000Y-96000000D03*
D15*
%TO.P,C1,2*%
%TO.N,GND*%
X21500000Y-96000000D03*
%TD*%
D11*
%TO.P,TP5,1*%
%TO.N,CAN_A_L*%
X111000000Y-24000000D03*
%TD*%
D16*
%TO.P,C10,1*%
%TO.N,CANFD_B_OSC1*%
X206000000Y-57037500D03*
%TO.P,C10,2*%
%TO.N,GND*%
X206000000Y-54962500D03*
%TD*%
%TO.P,C12,1*%
%TO.N,+3V3*%
X184000000Y-25037500D03*
%TO.P,C12,2*%
%TO.N,GND*%
X184000000Y-22962500D03*
%TD*%
D17*
%TO.P,J1,1*%
%TO.N,OBD1_SINGLE_WIRE_CANDIDATE*%
X12000000Y-16000000D03*
%TO.P,J1,2*%
%TO.N,OBD2_SPARE_PWM_J1850_CANDIDATE*%
X12000000Y-21000000D03*
%TO.P,J1,3*%
%TO.N,OBD3_CAN_B_PAIR_A_CANDIDATE*%
X12000000Y-26000000D03*
%TO.P,J1,4*%
%TO.N,GND*%
X12000000Y-31000000D03*
%TO.P,J1,5*%
X12000000Y-36000000D03*
%TO.P,J1,6*%
%TO.N,OBD6_CAN_A_PAIR_A*%
X12000000Y-41000000D03*
%TO.P,J1,7*%
%TO.N,OBD7_SINGLE_WIRE_CANDIDATE*%
X12000000Y-46000000D03*
%TO.P,J1,8*%
%TO.N,OBD8_SINGLE_WIRE_CANDIDATE*%
X12000000Y-51000000D03*
%TO.P,J1,9*%
%TO.N,OBD9_SINGLE_WIRE_CANDIDATE*%
X19500000Y-16000000D03*
%TO.P,J1,10*%
%TO.N,OBD10_SPARE_PWM_J1850_CANDIDATE*%
X19500000Y-21000000D03*
%TO.P,J1,11*%
%TO.N,OBD11_CAN_B_PAIR_B_CANDIDATE*%
X19500000Y-26000000D03*
%TO.P,J1,12*%
%TO.N,OBD12_SINGLE_WIRE_CANDIDATE*%
X19500000Y-31000000D03*
%TO.P,J1,13*%
%TO.N,OBD13_SINGLE_WIRE_CANDIDATE*%
X19500000Y-36000000D03*
%TO.P,J1,14*%
%TO.N,OBD14_CAN_A_PAIR_B*%
X19500000Y-41000000D03*
%TO.P,J1,15*%
%TO.N,OBD15_SINGLE_WIRE_CANDIDATE*%
X19500000Y-46000000D03*
%TO.P,J1,16*%
%TO.N,+12V_OBD*%
X19500000Y-51000000D03*
%TD*%
D11*
%TO.P,TP6,1*%
%TO.N,CAN_B_H*%
X111000000Y-39000000D03*
%TD*%
D18*
%TO.P,F1,1*%
%TO.N,+12V_OBD*%
X28600000Y-72000000D03*
%TO.P,F1,2*%
%TO.N,+12V_PROTECTED*%
X31400000Y-72000000D03*
%TD*%
D19*
%TO.P,D1,1*%
%TO.N,+12V_PROTECTED*%
X22000000Y-80000000D03*
%TO.P,D1,2*%
%TO.N,GND*%
X26000000Y-80000000D03*
%TD*%
%TO.P,D2,1*%
%TO.N,BUCK_SW*%
X54000000Y-98000000D03*
%TO.P,D2,2*%
%TO.N,GND*%
X58000000Y-98000000D03*
%TD*%
D20*
%TO.P,Y1,1*%
%TO.N,CANFD_A_OSC1*%
X207150000Y-25450000D03*
%TO.P,Y1,2*%
%TO.N,GND*%
X207150000Y-22550000D03*
%TO.P,Y1,3*%
%TO.N,CANFD_A_OSC2*%
X204850000Y-22550000D03*
%TO.P,Y1,4*%
%TO.N,GND*%
X204850000Y-25450000D03*
%TD*%
D14*
%TO.P,C3,1*%
%TO.N,+5V_REGULATED*%
X72000000Y-96000000D03*
D15*
%TO.P,C3,2*%
%TO.N,GND*%
X75500000Y-96000000D03*
%TD*%
D10*
%TO.P,C4,1*%
%TO.N,+5V_REGULATED*%
X70962500Y-84000000D03*
%TO.P,C4,2*%
%TO.N,GND*%
X73037500Y-84000000D03*
%TD*%
D16*
%TO.P,C8,1*%
%TO.N,CANFD_A_OSC1*%
X214000000Y-25075000D03*
%TO.P,C8,2*%
%TO.N,GND*%
X214000000Y-23000000D03*
%TD*%
D21*
%TO.P,C11,1*%
%TO.N,CANFD_B_OSC2*%
X205000000Y-68425000D03*
%TO.P,C11,2*%
%TO.N,GND*%
X205000000Y-70500000D03*
%TD*%
D11*
%TO.P,TP7,1*%
%TO.N,CAN_B_L*%
X111000000Y-45000000D03*
%TD*%
%TO.P,TP8,1*%
%TO.N,LIN_BUS*%
X111000000Y-64000000D03*
%TD*%
D10*
%TO.P,C6,1*%
%TO.N,+5V_REGULATED*%
X84962500Y-39000000D03*
%TO.P,C6,2*%
%TO.N,GND*%
X87037500Y-39000000D03*
%TD*%
D14*
%TO.P,SW1,1*%
%TO.N,OBD6_CAN_A_PAIR_A*%
X55000000Y-13000000D03*
D15*
%TO.P,SW1,2*%
%TO.N,OBD14_CAN_A_PAIR_B*%
X55000000Y-15540000D03*
%TO.P,SW1,3*%
%TO.N,OBD6_CAN_A_PAIR_A*%
X55000000Y-18080000D03*
%TO.P,SW1,4*%
%TO.N,OBD14_CAN_A_PAIR_B*%
X55000000Y-20620000D03*
%TO.P,SW1,5*%
%TO.N,OBD3_CAN_B_PAIR_A_CANDIDATE*%
X55000000Y-23160000D03*
%TO.P,SW1,6*%
%TO.N,OBD11_CAN_B_PAIR_B_CANDIDATE*%
X55000000Y-25700000D03*
%TO.P,SW1,7*%
%TO.N,OBD3_CAN_B_PAIR_A_CANDIDATE*%
X55000000Y-28240000D03*
%TO.P,SW1,8*%
%TO.N,OBD11_CAN_B_PAIR_B_CANDIDATE*%
X55000000Y-30780000D03*
%TO.P,SW1,9*%
%TO.N,CAN_B_H*%
X62620000Y-30780000D03*
%TO.P,SW1,10*%
%TO.N,CAN_B_L*%
X62620000Y-28240000D03*
%TO.P,SW1,11*%
X62620000Y-25700000D03*
%TO.P,SW1,12*%
%TO.N,CAN_B_H*%
X62620000Y-23160000D03*
%TO.P,SW1,13*%
%TO.N,CAN_A_H*%
X62620000Y-20620000D03*
%TO.P,SW1,14*%
%TO.N,CAN_A_L*%
X62620000Y-18080000D03*
%TO.P,SW1,15*%
X62620000Y-15540000D03*
%TO.P,SW1,16*%
%TO.N,CAN_A_H*%
X62620000Y-13000000D03*
%TD*%
D11*
%TO.P,TP3,1*%
%TO.N,GND*%
X24000000Y-60000000D03*
%TD*%
%TO.P,TP9,1*%
%TO.N,AUX_LIN_K_IO*%
X158000000Y-88000000D03*
%TD*%
D10*
%TO.P,C9,1*%
%TO.N,CANFD_A_OSC2*%
X204925000Y-18000000D03*
%TO.P,C9,2*%
%TO.N,GND*%
X207000000Y-18000000D03*
%TD*%
D21*
%TO.P,C13,1*%
%TO.N,+3V3*%
X184000000Y-60962500D03*
%TO.P,C13,2*%
%TO.N,GND*%
X184000000Y-63037500D03*
%TD*%
D11*
%TO.P,TP4,1*%
%TO.N,CAN_A_H*%
X111000000Y-18000000D03*
%TD*%
D10*
%TO.P,C2,1*%
%TO.N,+12V_PROTECTED*%
X24962500Y-88000000D03*
%TO.P,C2,2*%
%TO.N,GND*%
X27037500Y-88000000D03*
%TD*%
D14*
%TO.P,SW2,1*%
%TO.N,OBD7_SINGLE_WIRE_CANDIDATE*%
X55000000Y-52000000D03*
D15*
%TO.P,SW2,2*%
%TO.N,OBD15_SINGLE_WIRE_CANDIDATE*%
X55000000Y-54540000D03*
%TO.P,SW2,3*%
%TO.N,OBD1_SINGLE_WIRE_CANDIDATE*%
X55000000Y-57080000D03*
%TO.P,SW2,4*%
%TO.N,OBD8_SINGLE_WIRE_CANDIDATE*%
X55000000Y-59620000D03*
%TO.P,SW2,5*%
%TO.N,OBD9_SINGLE_WIRE_CANDIDATE*%
X55000000Y-62160000D03*
%TO.P,SW2,6*%
%TO.N,OBD12_SINGLE_WIRE_CANDIDATE*%
X55000000Y-64700000D03*
%TO.P,SW2,7*%
%TO.N,OBD13_SINGLE_WIRE_CANDIDATE*%
X55000000Y-67240000D03*
%TO.P,SW2,8*%
%TO.N,AUX_LIN_K_IO*%
X55000000Y-69780000D03*
%TO.P,SW2,9*%
%TO.N,LIN_BUS*%
X62620000Y-69780000D03*
%TO.P,SW2,10*%
X62620000Y-67240000D03*
%TO.P,SW2,11*%
X62620000Y-64700000D03*
%TO.P,SW2,12*%
X62620000Y-62160000D03*
%TO.P,SW2,13*%
X62620000Y-59620000D03*
%TO.P,SW2,14*%
X62620000Y-57080000D03*
%TO.P,SW2,15*%
X62620000Y-54540000D03*
%TO.P,SW2,16*%
X62620000Y-52000000D03*
%TD*%
D22*
%TO.P,R1,1*%
%TO.N,LIN_RX*%
X85000000Y-58000000D03*
%TO.P,R1,2*%
%TO.N,+3V3*%
X87000000Y-58000000D03*
%TD*%
D10*
%TO.P,C7,1*%
%TO.N,+5V_REGULATED*%
X84962500Y-64000000D03*
%TO.P,C7,2*%
%TO.N,GND*%
X87037500Y-64000000D03*
%TD*%
D20*
%TO.P,Y2,1*%
%TO.N,CANFD_B_OSC1*%
X207150000Y-63450000D03*
%TO.P,Y2,2*%
%TO.N,GND*%
X207150000Y-60550000D03*
%TO.P,Y2,3*%
%TO.N,CANFD_B_OSC2*%
X204850000Y-60550000D03*
%TO.P,Y2,4*%
%TO.N,GND*%
X204850000Y-63450000D03*
%TD*%
D23*
%TO.P,U5,1*%
%TO.N,+12V_PROTECTED*%
X34350000Y-84600000D03*
%TO.P,U5,2*%
%TO.N,BUCK_SW*%
X34350000Y-86300000D03*
%TO.P,U5,3*%
%TO.N,GND*%
X34350000Y-88000000D03*
D24*
%TO.N,N/C*%
X43500000Y-88000000D03*
D23*
%TO.P,U5,4*%
%TO.N,+5V_REGULATED*%
X34350000Y-89700000D03*
%TO.P,U5,5*%
%TO.N,GND*%
X34350000Y-91400000D03*
%TD*%
D11*
%TO.P,TP1,1*%
%TO.N,+12V_OBD*%
X34000000Y-60000000D03*
%TD*%
D25*
%TO.P,J2,1*%
%TO.N,CAN_B_H*%
X158000000Y-62000000D03*
D26*
%TO.P,J2,2*%
%TO.N,CAN_B_L*%
X158000000Y-64540000D03*
%TO.P,J2,3*%
%TO.N,AUX_LIN_K_IO*%
X158000000Y-67080000D03*
%TO.P,J2,4*%
%TO.N,GND*%
X158000000Y-69620000D03*
%TO.P,J2,5*%
%TO.N,+5V_REGULATED*%
X158000000Y-72160000D03*
%TO.P,J2,6*%
%TO.N,+12V_PROTECTED*%
X158000000Y-74700000D03*
%TO.P,J2,7*%
%TO.N,CAN_A_H*%
X158000000Y-77240000D03*
%TO.P,J2,8*%
%TO.N,CAN_A_L*%
X158000000Y-79780000D03*
%TD*%
D27*
%TO.N,+5V_REGULATED*%
X38281700Y-89755500D03*
X85274600Y-40244900D03*
X63856300Y-65801700D03*
%TO.N,GND*%
X197697600Y-54545000D03*
X196335400Y-27959900D03*
X95545500Y-26507900D03*
X88262600Y-63406700D03*
X22039000Y-60452800D03*
X88262600Y-38874100D03*
%TO.N,CANFD_A_INT*%
X192510000Y-29211300D03*
%TO.N,CANFD_B_INT*%
X192735700Y-48637200D03*
%TO.N,+3V3*%
X191237900Y-54366000D03*
X131578400Y-62281600D03*
X186756300Y-21462500D03*
X189592000Y-57373400D03*
X186762400Y-27249900D03*
%TO.N,CANFD_B_NCS*%
X188771600Y-56868600D03*
%TO.N,CANFD_SPI_SDI_MOSI*%
X185394400Y-58851500D03*
%TO.N,CANFD_SPI_SDO_MISO*%
X184472800Y-56892300D03*
%TO.N,+12V_PROTECTED*%
X129275200Y-81955800D03*
%TO.N,CAN_A_L*%
X129932100Y-25025900D03*
%TO.N,CANFD_B_OSC1*%
X208570600Y-63406700D03*
%TO.N,OBD6_CAN_A_PAIR_A*%
X14321200Y-27448400D03*
%TO.N,CAN_B_H*%
X131183200Y-59198500D03*
X128041200Y-45959100D03*
%TO.N,CANFD_A_OSC1*%
X208559400Y-25064500D03*
%TO.N,CANFD_A_OSC2*%
X196335400Y-24928300D03*
%TO.N,CANFD_B_OSC2*%
X195987900Y-63491200D03*
%TO.N,CANFD_B_XSTBY*%
X177713800Y-68286200D03*
X142736400Y-68286200D03*
%TO.N,CAN_B_L*%
X137718200Y-68314900D03*
X72985700Y-42729400D03*
X153590000Y-68950000D03*
X127238900Y-46037900D03*
%TO.N,LIN_BUS*%
X114467200Y-65046700D03*
%TO.N,CAN_A_H*%
X129952000Y-22053700D03*
%TO.N,CANFD_A_TXCAN*%
X191899200Y-20814200D03*
X138289000Y-27152300D03*
%TO.N,AUX_LIN_K_IO*%
X156742200Y-88102100D03*
%TD*%
%TO.N,+5V_REGULATED*%
D28*
X63000000Y-88000000D02*
X66962500Y-88000000D01*
X85741000Y-39778500D02*
X86037100Y-40074600D01*
X62073300Y-65801700D02*
X63856300Y-65801700D01*
X87913000Y-40074600D02*
X97312100Y-30675500D01*
X85274600Y-40244900D02*
X85741000Y-39778500D01*
X66962500Y-88000000D02*
X70962500Y-84000000D01*
X61516000Y-63572500D02*
X61516000Y-65244400D01*
X34405500Y-89755500D02*
X38281700Y-89755500D01*
X44000000Y-60000000D02*
X47572500Y-63572500D01*
X61516000Y-65244400D02*
X62073300Y-65801700D01*
X137970000Y-33390000D02*
X100026600Y-33390000D01*
X84962500Y-18000000D02*
X97312100Y-30349600D01*
X97312100Y-30349600D02*
X97312100Y-30675500D01*
X34350000Y-89700000D02*
X34405500Y-89755500D01*
X86037100Y-40074600D02*
X87913000Y-40074600D01*
X139240000Y-32120000D02*
X137970000Y-33390000D01*
X100026600Y-33390000D02*
X97312100Y-30675500D01*
X84535000Y-63572500D02*
X84962500Y-64000000D01*
X84962500Y-39000000D02*
X85741000Y-39778500D01*
X61516000Y-63572500D02*
X84535000Y-63572500D01*
X47572500Y-63572500D02*
X61516000Y-63572500D01*
%TO.N,GND*%
X158000000Y-69620000D02*
X177417500Y-69620000D01*
X26000000Y-80000000D02*
X27037500Y-81037500D01*
X204850000Y-24850000D02*
X207150000Y-22550000D01*
X204959200Y-58359200D02*
X207150000Y-60550000D01*
X56792900Y-99207100D02*
X58000000Y-98000000D01*
X32881600Y-88000000D02*
X31182200Y-89699400D01*
X205000000Y-70500000D02*
X206036200Y-69463800D01*
X29482800Y-88000000D02*
X27037500Y-88000000D01*
X22039000Y-60452800D02*
X23547200Y-60452800D01*
X143210300Y-25609700D02*
X139240000Y-29580000D01*
X204850000Y-63450000D02*
X204850000Y-62850000D01*
X213550000Y-22550000D02*
X214000000Y-23000000D01*
X185322500Y-27959900D02*
X196335400Y-27959900D01*
X190086800Y-58359200D02*
X204959200Y-58359200D01*
X26100000Y-91400000D02*
X31182200Y-91400000D01*
X34350000Y-91400000D02*
X42157100Y-99207100D01*
X182972300Y-25609700D02*
X185322500Y-27959900D01*
X206036200Y-64636200D02*
X204850000Y-63450000D01*
X87630800Y-63406700D02*
X87037500Y-64000000D01*
X184000000Y-22962500D02*
X182972300Y-23990200D01*
X206036200Y-69463800D02*
X206036200Y-64636200D01*
X207150000Y-18150000D02*
X207150000Y-22550000D01*
X23547200Y-60452800D02*
X24000000Y-60000000D01*
X207000000Y-18000000D02*
X207150000Y-18150000D01*
X21500000Y-96000000D02*
X26100000Y-91400000D01*
X31182200Y-91400000D02*
X34350000Y-91400000D01*
X196335400Y-27959900D02*
X202340100Y-27959900D01*
X75500000Y-96000000D02*
X75500000Y-86462500D01*
X88262600Y-38874100D02*
X87163400Y-38874100D01*
X204850000Y-62850000D02*
X207150000Y-60550000D01*
X204959200Y-54962500D02*
X204541700Y-54545000D01*
X182972300Y-23990200D02*
X182972300Y-25609700D01*
X34350000Y-88000000D02*
X32881600Y-88000000D01*
X42157100Y-99207100D02*
X56792900Y-99207100D01*
X124000000Y-29580000D02*
X98617600Y-29580000D01*
X87163400Y-38874100D02*
X87037500Y-39000000D01*
X95545400Y-26507900D02*
X95545500Y-26507900D01*
X182972300Y-25609700D02*
X143210300Y-25609700D01*
X31182200Y-91400000D02*
X31182200Y-89699400D01*
X202340100Y-27959900D02*
X204850000Y-25450000D01*
X184000000Y-63037500D02*
X185408500Y-63037500D01*
X73500000Y-98000000D02*
X75500000Y-96000000D01*
X177417500Y-69620000D02*
X184000000Y-63037500D01*
X204850000Y-25450000D02*
X204850000Y-24850000D01*
X58000000Y-98000000D02*
X73500000Y-98000000D01*
X98617600Y-29580000D02*
X95545500Y-26507900D01*
X204959200Y-54962500D02*
X206000000Y-54962500D01*
X204959200Y-54962500D02*
X204959200Y-58359200D01*
X27037500Y-81037500D02*
X27037500Y-88000000D01*
X75500000Y-86462500D02*
X73037500Y-84000000D01*
X204541700Y-54545000D02*
X197697600Y-54545000D01*
X87037500Y-18000000D02*
X95545400Y-26507900D01*
X207150000Y-22550000D02*
X213550000Y-22550000D01*
X185408500Y-63037500D02*
X190086800Y-58359200D01*
X139240000Y-29580000D02*
X124000000Y-29580000D01*
X31182200Y-89699400D02*
X29482800Y-88000000D01*
X88262600Y-63406700D02*
X87630800Y-63406700D01*
%TO.N,BUCK_SW*%
X54000000Y-92000000D02*
X58000000Y-88000000D01*
X37572000Y-84567800D02*
X37572000Y-83504200D01*
X38824900Y-82251300D02*
X52251300Y-82251300D01*
X52251300Y-82251300D02*
X58000000Y-88000000D01*
X35839800Y-86300000D02*
X37572000Y-84567800D01*
X34350000Y-86300000D02*
X35839800Y-86300000D01*
X37572000Y-83504200D02*
X38824900Y-82251300D01*
X54000000Y-98000000D02*
X54000000Y-92000000D01*
%TO.N,CANFD_A_INT*%
X124000000Y-37200000D02*
X125270000Y-35930000D01*
X185791300Y-35930000D02*
X192510000Y-29211300D01*
X125270000Y-35930000D02*
X185791300Y-35930000D01*
%TO.N,CANFD_B_INT*%
X192735700Y-48637200D02*
X132897200Y-48637200D01*
X132897200Y-48637200D02*
X124000000Y-39740000D01*
%TO.N,+3V3*%
X179213100Y-65749400D02*
X184000000Y-60962500D01*
X189592000Y-57373400D02*
X191237900Y-55727500D01*
X186756300Y-22281200D02*
X186756300Y-21462500D01*
X186762400Y-27249900D02*
X186212400Y-27249900D01*
X116860000Y-58000000D02*
X124000000Y-65140000D01*
X131578400Y-63870000D02*
X153729700Y-63870000D01*
X155609100Y-65749400D02*
X179213100Y-65749400D01*
X186212400Y-27249900D02*
X184000000Y-25037500D01*
X191237900Y-55727500D02*
X191237900Y-54366000D01*
X184000000Y-60962500D02*
X186002900Y-60962500D01*
X131578400Y-63870000D02*
X131578400Y-62281600D01*
X186002900Y-60962500D02*
X189592000Y-57373400D01*
X184000000Y-25037500D02*
X186756300Y-22281200D01*
X130308400Y-65140000D02*
X131578400Y-63870000D01*
X124000000Y-65140000D02*
X130308400Y-65140000D01*
X153729700Y-63870000D02*
X155609100Y-65749400D01*
X87000000Y-58000000D02*
X116860000Y-58000000D01*
%TO.N,LIN_RX*%
X124000000Y-49900000D02*
X93100000Y-49900000D01*
X93100000Y-49900000D02*
X85000000Y-58000000D01*
%TO.N,CANFD_B_NCS*%
X185613000Y-53710000D02*
X125270000Y-53710000D01*
X188771600Y-56868600D02*
X185613000Y-53710000D01*
X125270000Y-53710000D02*
X124000000Y-54980000D01*
%TO.N,CANFD_SPI_SDI_MOSI*%
X185394400Y-58851500D02*
X131687100Y-58851500D01*
X131687100Y-58851500D02*
X131432400Y-58596800D01*
X131432400Y-58596800D02*
X125463200Y-58596800D01*
X125463200Y-58596800D02*
X124000000Y-60060000D01*
%TO.N,CANFD_SPI_SDO_MISO*%
X123520200Y-56300400D02*
X183880900Y-56300400D01*
X122764300Y-61364300D02*
X122764300Y-57056300D01*
X124000000Y-62600000D02*
X122764300Y-61364300D01*
X183880900Y-56300400D02*
X184472800Y-56892300D01*
X122764300Y-57056300D02*
X123520200Y-56300400D01*
%TO.N,+12V_PROTECTED*%
X129275200Y-81689900D02*
X37260100Y-81689900D01*
X24962500Y-88000000D02*
X22000000Y-85037500D01*
X28529600Y-78779600D02*
X34350000Y-84600000D01*
X129275200Y-81689900D02*
X129275200Y-81955800D01*
X22000000Y-80000000D02*
X23220400Y-78779600D01*
X31400000Y-72000000D02*
X28529600Y-74870400D01*
X18000000Y-96000000D02*
X24962500Y-89037500D01*
X22000000Y-85037500D02*
X22000000Y-80000000D01*
X158000000Y-74700000D02*
X151010100Y-81689900D01*
X28529600Y-74870400D02*
X28529600Y-78779600D01*
X37260100Y-81689900D02*
X34350000Y-84600000D01*
X23220400Y-78779600D02*
X28529600Y-78779600D01*
X151010100Y-81689900D02*
X129275200Y-81689900D01*
X24962500Y-89037500D02*
X24962500Y-88000000D01*
%TO.N,CAN_A_L*%
X111000000Y-24000000D02*
X102540000Y-15540000D01*
X112025900Y-25025900D02*
X129932100Y-25025900D01*
X102540000Y-15540000D02*
X62620000Y-15540000D01*
X111000000Y-24000000D02*
X112025900Y-25025900D01*
%TO.N,CANFD_B_OSC1*%
X208570600Y-59608100D02*
X206000000Y-57037500D01*
X207193300Y-63406700D02*
X207150000Y-63450000D01*
X208570600Y-63406700D02*
X208570600Y-59608100D01*
X208570600Y-63406700D02*
X207193300Y-63406700D01*
%TO.N,OBD3_CAN_B_PAIR_A_CANDIDATE*%
X14240000Y-28240000D02*
X12000000Y-26000000D01*
X55000000Y-28240000D02*
X14240000Y-28240000D01*
%TO.N,OBD6_CAN_A_PAIR_A*%
X55000000Y-18080000D02*
X25034700Y-18080000D01*
X25034700Y-18080000D02*
X15666300Y-27448400D01*
X15666300Y-27448400D02*
X14321200Y-27448400D01*
%TO.N,OBD7_SINGLE_WIRE_CANDIDATE*%
X55000000Y-52000000D02*
X47334900Y-44334900D01*
X47334900Y-44334900D02*
X13665100Y-44334900D01*
X13665100Y-44334900D02*
X12000000Y-46000000D01*
%TO.N,OBD8_SINGLE_WIRE_CANDIDATE*%
X13666900Y-49333100D02*
X44713100Y-49333100D01*
X44713100Y-49333100D02*
X55000000Y-59620000D01*
X12000000Y-51000000D02*
X13666900Y-49333100D01*
%TO.N,OBD11_CAN_B_PAIR_B_CANDIDATE*%
X19800000Y-25700000D02*
X19500000Y-26000000D01*
X55000000Y-25700000D02*
X19800000Y-25700000D01*
%TO.N,OBD14_CAN_A_PAIR_B*%
X30990000Y-29510000D02*
X19500000Y-41000000D01*
X56101700Y-28735700D02*
X55327400Y-29510000D01*
X56101700Y-21721700D02*
X56101700Y-28735700D01*
X55000000Y-20620000D02*
X56101700Y-21721700D01*
X55327400Y-29510000D02*
X30990000Y-29510000D01*
%TO.N,OBD15_SINGLE_WIRE_CANDIDATE*%
X46460000Y-46000000D02*
X19500000Y-46000000D01*
X55000000Y-54540000D02*
X46460000Y-46000000D01*
%TO.N,+12V_OBD*%
X25000000Y-51000000D02*
X34000000Y-60000000D01*
X28600000Y-72000000D02*
X28600000Y-65400000D01*
X19500000Y-51000000D02*
X25000000Y-51000000D01*
X28600000Y-65400000D02*
X34000000Y-60000000D01*
%TO.N,CAN_B_H*%
X115550000Y-43550000D02*
X125632100Y-43550000D01*
X62620000Y-30780000D02*
X72697200Y-40857200D01*
X125632100Y-43550000D02*
X128041200Y-45959100D01*
X133314700Y-61330000D02*
X131183200Y-59198500D01*
X158000000Y-62000000D02*
X156848300Y-62000000D01*
X111000000Y-39000000D02*
X115550000Y-43550000D01*
X156178300Y-61330000D02*
X133314700Y-61330000D01*
X156848300Y-62000000D02*
X156178300Y-61330000D01*
X109142800Y-40857200D02*
X111000000Y-39000000D01*
X72697200Y-40857200D02*
X109142800Y-40857200D01*
%TO.N,CANFD_A_OSC1*%
X207535500Y-25064500D02*
X208559400Y-25064500D01*
X208559400Y-25064500D02*
X213989500Y-25064500D01*
X213989500Y-25064500D02*
X214000000Y-25075000D01*
X207150000Y-25450000D02*
X207535500Y-25064500D01*
%TO.N,CANFD_A_OSC2*%
X204850000Y-18075000D02*
X204850000Y-22550000D01*
X196335400Y-24928300D02*
X202471700Y-24928300D01*
X202471700Y-24928300D02*
X204850000Y-22550000D01*
X204925000Y-18000000D02*
X204850000Y-18075000D01*
%TO.N,CANFD_B_OSC2*%
X203645900Y-67070900D02*
X203645900Y-63491200D01*
X203645900Y-61754100D02*
X204850000Y-60550000D01*
X205000000Y-68425000D02*
X203645900Y-67070900D01*
X203645900Y-63491200D02*
X195987900Y-63491200D01*
X203645900Y-63491200D02*
X203645900Y-61754100D01*
%TO.N,CANFD_B_XSTBY*%
X142736400Y-68286200D02*
X177713800Y-68286200D01*
%TO.N,CAN_B_L*%
X111000000Y-45000000D02*
X108729400Y-42729400D01*
X108729400Y-42729400D02*
X72985700Y-42729400D01*
X112037900Y-46037900D02*
X127238900Y-46037900D01*
X111000000Y-45000000D02*
X112037900Y-46037900D01*
X137718200Y-68314900D02*
X138353300Y-68950000D01*
X138353300Y-68950000D02*
X153590000Y-68950000D01*
%TO.N,LIN_BUS*%
X111000000Y-65046700D02*
X111000000Y-64000000D01*
X62966700Y-65046700D02*
X111000000Y-65046700D01*
X62620000Y-64700000D02*
X62966700Y-65046700D01*
X111000000Y-65046700D02*
X114467200Y-65046700D01*
%TO.N,CAN_A_H*%
X62620000Y-13000000D02*
X106000000Y-13000000D01*
X111000000Y-18000000D02*
X115053700Y-22053700D01*
X115053700Y-22053700D02*
X129952000Y-22053700D01*
X106000000Y-13000000D02*
X111000000Y-18000000D01*
%TO.N,CANFD_A_TXCAN*%
X144627100Y-20814200D02*
X191899200Y-20814200D01*
X138289000Y-27152300D02*
X144627100Y-20814200D01*
%TO.N,AUX_LIN_K_IO*%
X157897900Y-88102100D02*
X158000000Y-88000000D01*
X158000000Y-67080000D02*
X157354600Y-66434600D01*
X111457600Y-68479800D02*
X56300200Y-68479800D01*
X56300200Y-68479800D02*
X55000000Y-69780000D01*
X113502800Y-66434600D02*
X111457600Y-68479800D01*
X157354600Y-66434600D02*
X113502800Y-66434600D01*
X156742200Y-88102100D02*
X157897900Y-88102100D01*
%TD*%
M02*
